<?xml version="1.0" encoding="UTF-8"?>
<!DOCTYPE svg PUBLIC "-//W3C//DTD SVG 1.1//EN" "http://www.w3.org/Graphics/SVG/1.1/DTD/svg11.dtd">
<!-- Creator: CorelDRAW 2020 (64-Bit Evaluation Version) -->
<svg xmlns="http://www.w3.org/2000/svg" xml:space="preserve" width="9.4082mm" height="8.6155mm" version="1.1" style="shape-rendering:geometricPrecision; text-rendering:geometricPrecision; image-rendering:optimizeQuality; fill-rule:evenodd; clip-rule:evenodd"
viewBox="0 0 58.28 53.37"
 xmlns:xlink="http://www.w3.org/1999/xlink"
 xmlns:xodm="http://www.corel.com/coreldraw/odm/2003">
 <defs>
  <style type="text/css">
   <![CDATA[
    .str0 {stroke:#FEFEFE;stroke-width:0.44;stroke-miterlimit:22.9256}
    .str1 {stroke:#FEFEFE;stroke-width:0.44;stroke-linecap:round;stroke-linejoin:round;stroke-miterlimit:22.9256}
    .fil1 {fill:none}
    .fil0 {fill:url(#id0)}
   ]]>
  </style>
  <linearGradient id="id0" gradientUnits="userSpaceOnUse" x1="32.79" y1="4.12" x2="32.79" y2="52.57">
   <stop offset="0" style="stop-opacity:1; stop-color:#F4C711"/>
   <stop offset="1" style="stop-opacity:1; stop-color:#F5971E"/>
  </linearGradient>
 </defs>
 <g id="Layer_x0020_1">
  <metadata id="CorelCorpID_0Corel-Layer"/>
  <g id="_3270449790720">
   <path class="fil0" d="M31.3 0l-0.37 0c-0.16,0.28 -0.44,0.49 -0.65,0.76 -0.72,0.92 -1.35,0.23 -2.29,0.52 -0.22,0.07 -0.79,0.31 -0.96,0.45 -0.1,0.57 -0.15,1.26 -0.2,1.84 -0.05,0.6 -0.37,0.9 -0.68,1.37 -0.54,0.82 -1.09,1.6 -1.67,2.43 -0.35,0.51 -0.39,0.82 -0.99,1.06 -0.51,0.2 -0.97,0.37 -1.47,0.57 -1.26,0.51 -1.14,0.22 -1.86,1.21 -0.44,0.6 -0.84,1.13 -1.17,1.83 -0.21,0.44 -0.34,1.04 -0.79,1.26 -0.24,0.12 -0.47,0.21 -0.69,0.33 -0.29,0.15 -0.3,0.25 -0.44,0.58 -0.2,0.46 -0.7,1.63 -1.07,1.93 -0.21,0.17 -2.43,0.27 -2.78,0.3 -2.01,0.18 -2.24,0.5 -3.42,0.65 -0.14,-0.28 -0.5,-0.48 -0.72,-0.68 -0.25,-0.23 -0.26,-0.55 -0.36,-0.99 -0.14,-0.64 -0,-0.53 -0.57,-0.77 -1.09,-0.46 -0.83,-0.31 -2.68,0.7 -0.51,0.28 -0.39,0.14 -0.69,0.66l-0.99 1.69c-0.24,0.42 -0.21,0.48 -0.6,0.74 -0.52,0.36 -1.07,0.75 -1.6,1.09 -0.82,0.54 -0.79,0.62 -1.21,1.48 -0.5,1.01 -0.34,1.21 -0.35,2.34 0.28,0.22 0.51,0.42 0.82,0.69 1.23,1.1 1.25,0.53 3.29,1.13 0.04,0.44 0.01,0.98 0.01,1.43 0,0.61 0.12,0.85 -0.22,1.15 -0.87,0.77 -0.69,0.56 -0.29,1.89 0.33,1.1 0.31,1.28 0.95,1.93 0.56,0.55 1.79,0.14 2.39,0.16 0.03,0.5 0.08,0.99 0.12,1.5 0.06,0.76 -0.02,0.69 0.36,1.17 0.81,1.01 0.72,0.78 0.81,2.26 0.03,0.55 1.14,2.92 1.49,3.19 0.2,0.16 0.73,0.49 0.95,0.57 0.69,-0.53 0.4,-0.54 1.54,-0.54 0.77,0 1.48,-0.13 1.84,0.19 0.52,0.47 0.91,0.44 1.61,0.28 0.63,-0.14 0.56,0.25 1.23,0.23 0.81,-0.03 0.29,0.42 0.95,1.08l0.77 0.75c0.14,-0.19 0.32,-0.37 0.45,-0.55 0.68,0.1 1.05,0.52 1.37,0.85 0.5,0.5 0.48,0.76 1.56,0.6 0.26,-0.6 -0.07,-0.96 0.64,-1.01 0.19,0.5 0.33,0.58 0.59,0.89 -0.22,0.35 -0.48,0.6 -0.67,0.96 0.13,0.28 0.3,0.47 0.43,0.75 0.12,0.27 0.12,0.57 0.23,0.85 0.47,0 0.91,-0.3 1.4,-0.12 0.09,0.38 -0.08,0.55 -0.23,0.86 -0.18,0.35 -0.08,0.35 0.09,0.7 0.2,0.4 0.18,0.35 0.49,0.6 0.32,0.26 0.13,0.42 0.29,0.76l0.73 0.15c0.19,1.04 0.12,0.52 -0.14,1.29 0.31,0.28 0.61,0.46 1.12,0.54 1.04,0.16 0.46,0.12 0.94,0.66 0.22,0.25 2.5,2.11 2.7,2.16 0.45,0.11 1.99,-0.54 2.36,-0.79 0.45,-0.3 0.49,-0.4 0.38,-1.13 -0.29,-0.12 -0.6,-0.2 -0.86,-0.3l-0.01 -0.44c0.3,-0.24 1.29,-0.7 1.72,-0.92 0.46,-0.24 0.42,-0.16 0.65,-0.63 0.22,-0.43 0.28,-0.42 0.32,-0.98 0.14,-2.27 0.54,-1.4 -0.1,-3.17 -0.2,-0.54 -0.07,-0.5 -0.62,-0.66 -0.32,-1.03 0.19,-0.82 0.18,-1.5 -0.02,-0.57 -0.24,-1.16 0.07,-1.58 0.17,0.19 0.27,0.25 0.44,0.51l0.7 -0.21 0.02 -1.1 -0.72 0.02c-0.06,-0.29 -0.16,-0.29 -0.03,-0.55 0.29,-0.04 0.4,0.27 0.7,0.25 0.13,-0.01 0.69,-0.22 0.78,-0.29 0.47,-0.38 0.09,-1.05 1.25,-0.86 0,1.1 0.18,0.5 0.56,1.12 -0.27,0.55 -0.46,0 -1.27,-0.16l0.2 1.41c0.53,0.21 1.35,0.2 1.95,0.2 1.91,-0 1.02,-0.27 1.73,-0.35 0.36,0.47 0.79,1.36 0.78,1.94 -0.6,0.12 -0.7,0.15 -1.06,0.5 0.09,0.56 0.36,0.78 0.23,1.36 -0.12,0.51 -0.14,0.94 -0.14,1.47 -1.18,0.09 -1.72,-0.26 -2.09,0.14 -0.18,0.19 -0.3,0.26 -0.42,0.42 0.15,0.18 1.36,1.21 1.6,1.31 0.54,-0.36 0.17,-0.54 1.1,-0.72 0.84,-0.16 0.61,-0.18 1.1,-0.62 0.39,-0.35 0.51,-0.4 0.85,-0.88 0.26,-0.39 0.4,-0.75 0.86,-0.87 0.17,0.24 0.02,0.15 0.27,0.26 0.16,-0.2 0.28,-0.27 0.46,-0.55 0.32,0.17 0.28,0.32 0.54,0.4 0.66,0.1 0.55,-0.19 0.96,0.37 0.37,-0.21 0.46,-0.54 0.99,-0.57 0.31,0.5 0.58,0.86 1.26,1.11l0.59 -0.65c-0.16,-0.37 -0.41,-0.8 -0.53,-1.16 -0.1,-0.27 0.11,-0.96 0.26,-1.22 0.73,0.21 0.13,0.31 1.04,0.09 0.17,-1.02 0.34,-0.79 -0.27,-1.5 -0.28,-0.33 -0.85,-0.79 -0.88,-1.22l0.34 -0.18 0.04 -0.9c0.28,-0.16 1.34,-0.43 1.74,-0.56 0.45,-0.14 1.26,-0.4 1.57,-0.66 -0.04,-0.39 -0.22,-0.73 -0.21,-1.15 0.03,-0.64 0.28,-0.77 -0.35,-0.99 -0.49,0.34 -0.37,0.65 -1.03,0.79 -2.44,0.53 -1.74,0.58 -3.61,-0.8 -0.54,-0.4 -0.61,-0.34 -0.74,-1.05 -0.12,-0.63 0.12,-0.75 0.38,-1.23 0.18,-0.33 0.11,-0.27 0.48,-0.42 1.29,-0.51 0.7,-0.37 1.47,-1.09l1.03 -0.76c0.35,-0.25 0.67,-0.49 1,-0.73 1.11,-0.8 0.91,-0.75 2.29,-1.17 1.31,-0.39 3.2,-1.77 4.55,-2.35l-0.04 -0.8 0.81 -0.04c0.02,-0.31 0.06,-0.67 -0.15,-0.87 -0.23,-0.23 -0.36,-0.26 -0.73,-0.13 -0.95,0.34 -0.03,0.42 -1.52,0.15 -0.83,-0.15 -0.96,-0.13 -1.71,0.14 -0.25,0.09 -0.56,0.15 -0.69,0.33 -0.19,0.26 -0.07,0.49 -0.45,0.41 -0.1,-0.19 -0.06,-0.34 -0.05,-0.6 0.54,-0.33 1.44,-0.65 1.98,-0.93 -0.15,-0.36 -0.64,-0.63 -0.89,-0.93 0.32,-0.77 0.37,-0.23 0.31,-1.41 -0.98,-0.86 -1.08,-0.25 -1.5,-1.58 -0.5,-1.58 -0.15,-1.68 -0.38,-2.62 -1.42,0.52 -0.57,-0.07 -1.91,0.03 -0.11,0.61 -0.03,0.82 -0.82,0.89 -0.22,-0.44 0.01,-0.36 0.15,-0.85 0.08,-0.28 0.12,-0.81 0.16,-1.12 0.04,-0.28 0.19,-0.89 0.09,-1.12 -0.08,-0.2 -0.48,-0.53 -0.67,-0.61 -0.63,0.31 -1.24,1.01 -1.87,1.26 -0.38,-0.42 -0.68,-0.62 -0.94,-1 -0.7,0.12 -0.66,0.2 -0.65,0.85 -0.31,-0.08 -0.54,-0.33 -0.86,-0.31l-0.19 2.06c-0.41,-0.36 -0.09,-0.24 -0.8,-0.28 -0.14,-0.06 0.06,-0.23 -0.82,-0.6 -0.01,-0.74 0.17,-0.14 0.33,-0.73 0.08,-0.3 0.08,-0.56 0.23,-0.8 0.54,-0.22 0.59,-0.01 0.78,-0.66 -0.72,-0.53 -1.47,-1.37 -2.14,-1.88l-0.85 -0.75c-0.65,-0.67 -0.82,-0.39 -0.93,-1.44 -0.19,-1.82 0.47,-0.99 -0.48,-2.46 -0.3,-0.46 -0.14,-0.93 -0.35,-1.26 -0.31,-0.27 -1.59,-0.07 -2.09,-0.46 -0.44,-0.34 -0.96,-0.84 -1.45,-1.07l-0.04 0.44 -1.09 0.03 -0.56 -0.72c0.12,-0.15 0.31,-0.26 0.35,-0.46 0.04,-0.22 -0.03,-0.57 0.02,-0.81 0.07,-0.34 0.44,-0.73 0.51,-1.09l-0.75 -0.03 -0.13 -1.19c-0.08,-0.06 -0.02,-0.03 -0.14,-0.08 -0.7,-0.27 -2.22,0.03 -3.35,-0.7l0.06 -1.6z"/>
   <polygon class="fil1 str0" points="20.85,16.72 31.66,16.72 37.43,21.32 37.43,36.65 20.85,36.65 "/>
   <g>
    <polygon class="fil1 str1" points="31.66,16.77 37.35,21.28 31.66,21.43 "/>
   </g>
   <line class="fil1 str0" x1="21.86" y1="19.64" x2="25.76" y2= "19.64" />
   <line class="fil1 str0" x1="21.86" y1="20.3" x2="25.76" y2= "20.3" />
   <line class="fil1 str0" x1="21.86" y1="20.95" x2="24.76" y2= "20.95" />
   <line class="fil1 str0" x1="22.28" y1="23.59" x2="35.07" y2= "23.59" />
   <line class="fil1 str0" x1="22.28" y1="24.24" x2="35.07" y2= "24.24" />
   <line class="fil1 str0" x1="22.28" y1="24.9" x2="31.78" y2= "24.9" />
   <line class="fil1 str0" x1="22.28" y1="26.26" x2="35.07" y2= "26.26" />
   <line class="fil1 str0" x1="22.28" y1="26.91" x2="35.07" y2= "26.91" />
   <line class="fil1 str0" x1="22.28" y1="27.57" x2="31.78" y2= "27.57" />
   <line class="fil1 str0" x1="22.28" y1="28.93" x2="35.07" y2= "28.93" />
   <line class="fil1 str0" x1="22.28" y1="29.58" x2="35.07" y2= "29.58" />
   <line class="fil1 str0" x1="22.28" y1="30.24" x2="31.78" y2= "30.24" />
   <line class="fil1 str0" x1="22.28" y1="31.6" x2="35.07" y2= "31.6" />
   <line class="fil1 str0" x1="22.28" y1="32.25" x2="35.07" y2= "32.25" />
   <line class="fil1 str0" x1="22.28" y1="32.91" x2="31.78" y2= "32.91" />
  </g>
 </g>
</svg>
