<?xml version="1.0" encoding="UTF-8"?>
<!DOCTYPE svg PUBLIC "-//W3C//DTD SVG 1.1//EN" "http://www.w3.org/Graphics/SVG/1.1/DTD/svg11.dtd">
<!-- Creator: CorelDRAW 2020 (64-Bit Evaluation Version) -->
<svg xmlns="http://www.w3.org/2000/svg" xml:space="preserve" width="102.262mm" height="38.6292mm" version="1.1" style="shape-rendering:geometricPrecision; text-rendering:geometricPrecision; image-rendering:optimizeQuality; fill-rule:evenodd; clip-rule:evenodd"
viewBox="0 0 5877.18 2220.1"
 xmlns:xlink="http://www.w3.org/1999/xlink"
 xmlns:xodm="http://www.corel.com/coreldraw/odm/2003">
 <defs>
  <style type="text/css">
   <![CDATA[
    .str0 {stroke:#2B2A29;stroke-width:11.49;stroke-miterlimit:22.9256}
    .fil7 {fill:none}
    .fil5 {fill:#CC6F3C}
    .fil1 {fill:#262166}
    .fil4 {fill:#A8A8A8}
    .fil0 {fill:#F4C711}
    .fil2 {fill:#F5971E}
    .fil3 {fill:white}
    .fil6 {fill:#2B2A29;fill-rule:nonzero}
   ]]>
  </style>
 </defs>
 <g id="Layer_x0020_1">
  <metadata id="CorelCorpID_0Corel-Layer"/>
  <g id="_3234215882304">
   <g>
    <g>
     <path class="fil0" d="M441.71 800.93c83.93,0 168.1,15.56 242.31,38.9 36.71,11.55 67.23,26.02 100.02,40.97 23.39,10.66 46.45,24.02 68.2,37.56 6.43,4.01 17.46,8.43 21.58,13.68 -15.08,1.51 -34.23,-9.49 -44.87,-12.9 -72.05,-23.12 -172.99,-40.67 -248.51,-40.59 -38.82,0.04 -74.64,4.09 -113.19,4.09 -6.53,-11.87 -7.94,-26.63 -14.17,-38.97 -6.1,-12.09 -8.72,-28.51 -11.36,-42.75zm-318.19 71.42l0 -18.35c0.03,-0.25 0.06,-0.51 0.1,-0.76 0.89,-6.17 4.83,-7.89 6.6,-14.55 1.77,-6.68 1.7,-9.51 4.84,-14.91 2.79,-4.78 5.01,-7.22 8.51,-11.22 17.74,-20.22 11.32,-11.57 25.14,-35.5 27.1,-46.95 29.59,-23.72 52.57,-67.31 8.54,-16.19 10.28,-9.66 22.75,-18.15 8.1,-5.52 12.74,-13.1 19.47,-20.01l9.72 -11.44c6.72,-8.25 18.77,-28.28 32.78,-24.88 17.09,4.16 27.48,33.01 32.4,48.12 8.9,27.31 29.71,28.59 50.33,16.12 23.97,-14.51 26.8,-8.58 52.1,-9.95 6.78,-0.37 9.7,-1.51 18.31,-1.43 26.74,0.25 46.51,-7.17 67.7,-12.68 17.7,-4.6 14.36,-3.29 22.1,-18.8 23.3,-46.71 43.44,-50.25 55.85,-64.02 18.12,-20.12 -1.83,-35.32 32.37,-69.16 4.06,-4.02 6.89,-5.12 10.66,-9.09 3.13,-3.3 5.67,-7.37 7.86,-11.87 2.55,-5.24 2.8,-9.6 6.12,-13.62l60.24 -41.3c22.78,-13.95 7.61,-4.55 22.37,-17.11 3.72,-3.17 7.36,-6.31 12.29,-7.46 0,-15.64 0.74,-29.58 4.74,-41.79 3.48,-10.64 9.67,-21.72 15.79,-30.75 11.51,-16.97 25.28,-14.42 27.59,-30.22 0.65,-4.44 1,-5.33 1.24,-10.05 0.36,-7.3 -0.2,-16.37 1.03,-21.53 5.06,-21.31 23.83,-40.45 43.45,-48.22 7.37,-2.92 10.66,-3.15 19.57,-4.47 10.06,-1.49 11.05,1.74 20.36,0.78 16.53,-1.7 16.82,-13.68 31.22,-14.01 -4.94,7.39 -10.99,14.83 -18.33,19.75 3.05,6.36 4.13,17.87 7.05,23.97 21.04,-0.47 6.98,-12.55 45.72,-4.82 16.25,3.24 30.65,7.24 46.05,10.36 12.81,2.6 13.88,-0.27 17.36,12.26 11.19,40.41 5.03,38.7 -3.09,68.51 -18.3,67.31 34.82,30.21 68.2,51.12 4.38,2.75 3.91,3.37 10.43,3.68 18.06,0.84 51.33,-4.82 61.02,23.9 -4.07,5.02 -6.11,3.71 -11.49,8.47 0.3,11.84 7.26,41.09 13.1,47.4 5.67,-2.37 6.01,-3.89 13.6,-5.09l16.4 61.16c1.07,3.59 3.63,12.1 5.26,14.48 3.99,5.83 25.99,9.1 47.92,49.39 4.78,8.78 8.93,16.24 12.06,26.02 8.37,26.14 1.42,39.67 -4.09,63.32 13.8,3.21 19.03,4.23 36.67,4.23 3.02,-12.97 14.29,-38.72 15.59,-45.06 1.45,-7.05 -1.79,-12.45 1.33,-15.58 17.55,-8.41 22.9,17.32 28.24,26.76 3.45,6.09 7.02,11.01 11.68,16.53 10.3,12.18 5.26,8.42 15.07,13.13 5.68,-11.84 9.79,-20.49 19.4,-31.37 7.47,-8.45 19.89,-18.7 31.82,-7.15 20.78,20.12 5.2,52.24 5.2,83.65 13.5,0 17.97,-0.59 25.63,-6.8 6.02,-4.89 9.48,-10.94 18.09,-12.94 2.86,1.92 4.16,3.33 6.72,5.97l6.23 6.73c-1.57,18.72 -54.32,97.53 -69.58,121.05 -5.49,8.47 -19.13,33.89 -27.21,37.14 -13.89,-0.21 -31.6,-5.41 -45.74,-7.57 -48.65,-7.41 -100.2,-8.71 -149.35,-6.32 -139.36,6.79 -282.19,52.71 -396.27,128.22 -25.19,16.67 -53.01,44.59 -57.08,47.33l-0.64 -1.17c2.75,-7.63 22.66,-27.67 27.93,-32.25 47.27,-40.99 103.31,-63.93 110.43,-72.08 -3.7,-4.42 -17.2,-9.97 -23.17,-12.64 -6.55,-2.94 -19.58,-6.04 -26.74,-8.55 -62.18,-21.79 -106.23,-29.63 -174.87,-35.3 -143.59,-11.84 -230.07,19.25 -253.02,17.82 -3.16,0.91 -1.94,-1.4 -4.1,6.66 -3.02,-2.29 -28.68,-2.78 -28.72,-2.78 -0.13,0.02 -0.51,0.14 -0.66,0.17 -7.04,1.39 -11.41,0.68 -19.49,-0.18 -0.09,-0.01 -0.43,-0.05 -0.52,-0.05 -0.09,0 -0.44,0.03 -0.54,0.04 -0.11,0.01 -0.49,0.11 -0.61,0.13l-16.59 -0.06c-6.35,-1.02 5.91,-1.37 -3.37,0.46l-17.46 -0.5c-0.13,0.02 -0.51,0.14 -0.65,0.17l-19.49 -0.18c-0.09,-0.01 -0.43,-0.05 -0.52,-0.05l-1.15 0.17c-0.14,0.03 -0.54,0.17 -0.7,0.2 -6.7,1.31 -10.09,0.68 -15.89,-0.25 -6.31,-1.02 4.35,-0.84 -1.58,-0.06l-11.21 0.87c-4.95,0.18 -5.32,0.89 -9.48,-3.71 -3.02,6.07 3.93,3.3 -10.09,3.62 -5.4,0.12 -6.47,1.45 -11.06,-3.62l-1.84 4.23 -18.09 -0.55c-5.85,-0.05 -10.52,-0.26 -15.4,-0.14 -6.29,0.16 -10.97,0.57 -16.72,-0.57l-16.07 1.31c-10.94,-9.76 -17.82,-26.75 -19.74,-43.32zm782.86 56.45c6.1,-11.02 66.66,-42.22 85.23,-50.86 31.09,-14.47 61.5,-28.52 93.96,-41.47 61.18,-24.4 179.74,-53.49 252.01,-47.62 -0.07,4.91 -25.48,80.2 -28.03,84l-9.89 0.47c-108.71,-1.49 -127.08,-8.94 -251.94,16.94 -49.93,10.35 -93.9,25.99 -141.35,38.54zm-55.27 -37.45c5.68,4.22 12.82,13.99 17.59,15.95 -6.8,-0.06 -82.39,-39.99 -98.5,-46.48 -80.78,-32.53 -138.54,-52.25 -227.01,-66.33 -36.53,-5.82 -30.93,2.37 -42.85,-30.47 -5.74,-15.81 -16.42,-37.51 -18.8,-53.83 35.09,3.52 83.6,21.18 114.65,32.72 68.48,25.48 135.25,59.5 192.73,100.59 25.39,18.15 40.95,32.08 62.19,47.85zm60.32 14.12c5.33,-9.56 10.9,-12.6 18.13,-19.14l58.13 -48.99c25.31,-20.81 55.86,-38.76 87.42,-56.48 43.16,-24.23 158.44,-72.62 214.47,-72.62 -2.13,13.26 -12.36,39.78 -17.21,54.14 -6.22,18.41 -5.4,13.93 -49.29,22.45 -40.25,7.83 -77.25,16.96 -114.82,29.21 -34.95,11.4 -70.98,25.15 -102.6,41.18 -16.85,8.55 -30.95,16.52 -47.09,24.9 -14.52,7.53 -33.13,20.13 -47.13,25.35z"/>
     <path class="fil1" d="M385.26 910.37c-3.87,8.37 11.33,43.4 14.37,51.72 8.64,23.69 6.94,22.65 11.96,38.76 1.16,3.71 3.87,7.61 5.34,11.59 6.09,16.42 11.54,33.83 17.28,50.42 5.75,16.6 12.56,34.34 16.26,51.38 2.01,9.25 6.14,15.69 9.35,24.53l42.67 126.53c3.77,11.64 11.54,41.09 17.29,48.85 32.53,3.81 69.95,-2.17 103.63,-0.37 56,2.98 116.11,23.22 165.06,46.25 32.82,15.44 39.01,21.87 66.29,37.51 9.32,-4.2 20.24,-10.59 28.89,-15.52 4.76,-2.71 8.73,-4.64 13.62,-7.54 6.37,-3.78 9.44,-4.26 11.41,-10.99l-58.9 -53.41c-11.83,-10.22 -11.76,-6.52 -7.22,-25.71 4.51,2.91 7.3,5.08 10.64,8.22l31.02 26.77c6.39,5.91 13.1,11.02 20.46,17.59 6.2,5.53 13.99,12.38 20.68,17.37 11.53,-3.46 40.62,-28.63 55.72,-38.48 4.6,-3 4.73,-1.88 5.25,-8.72 -9.82,-6.03 -16.43,-13.14 -24.94,-19.83l-49.98 -37.44c-7.63,-5.72 -17.72,-14.21 -25.79,-18.39l7.29 -16.29c10.8,3.69 44.85,32.26 55.11,40.37 17.63,13.91 34.37,27.28 51.4,41.74 17.04,-2.93 60.39,-49.55 70.29,-53.56l0.09 -5.92c-18.95,-17.99 -34.64,-35.17 -57.1,-52.54 -19.33,-14.95 -41.87,-29.35 -66.85,-41.54 -0.16,-4.8 1.17,-7.79 2.42,-11.29 24.94,2.52 110.14,70.97 134.02,94.7 11.23,-2.48 26.81,-20.81 34.09,-28.39 8.04,-8.38 24.95,-22.8 29.62,-32.86 -3.32,-6.2 -31.01,-36.51 -36.52,-42.16 -11.86,-12.16 -49.09,-48.13 -61.12,-57.33 -19.29,-14.76 -28.12,-31.71 -50.91,-25.98 -10.01,2.52 -19.95,5.49 -29.18,8.84 -62.84,22.9 -172.24,89.43 -237.04,35.48 -8.07,-3.1 -14.09,-8.62 -19.12,-13.32l10.84 -16.64c0.16,-0.17 0.72,-0.21 0.84,-0.7 0.13,-0.49 0.59,-0.45 0.89,-0.69 2.75,-7.63 22.66,-27.67 27.93,-32.25 47.27,-40.99 103.31,-63.93 110.43,-72.08 -3.7,-4.42 -17.2,-9.97 -23.17,-12.64 -6.55,-2.94 -19.58,-6.04 -26.74,-8.55 -62.18,-21.79 -106.23,-29.63 -174.87,-35.3 -143.59,-11.84 -230.07,19.25 -253.02,17.82z"/>
     <path class="fil2" d="M143.26 915.67c14.65,17.02 62.44,9.12 78.41,32.52 13.71,20.1 2.7,46.08 -4.2,66.59 -5.46,16.24 -1.09,10.08 -7.93,20.28 0.2,0.28 0.44,0.41 0.52,0.89l3.15 5.31c12.87,20.49 20.63,25.94 27.05,51.93 2.72,10.99 8.21,21.93 17.71,26.01 13.53,5.82 29.22,-0.74 37.59,-0.93 0,43.55 -4.01,57.72 13.8,86.32 6.3,10.13 16.4,17.13 21.94,27.41 5.99,11.09 4.99,27.9 10.79,39.98 6.05,-1.07 4.22,-1.09 6.19,-6.5 1.74,-4.81 2.36,-5.37 4.83,-8.82 16.06,7.94 12.16,28.03 7.31,46.35l21.62 40.43c5.62,11.41 3.32,10.71 17,14.03 55.15,13.36 62.68,9.13 113.65,4.74 9.41,-0.82 19.69,-2.79 29.66,-2.79 30.4,45.41 35.18,37.81 63.48,57.81 9.78,6.91 12.39,11.98 20.75,20.14 7.52,7.35 15.82,10.75 28.49,8.02 6.47,-1.39 9,-2.33 15.01,-4.78 7.86,-3.21 22.44,-7.49 28.43,-12.47 2.93,-2.43 9.74,-12.99 20.42,-8.49 6.51,2.74 8.12,15.32 9.57,21.55 8.57,-0.71 11.17,-6.21 21.16,-7.05 -0.53,6.38 -1.41,9.79 -1.41,18.33 15.85,-1.59 41.66,-18.28 55.17,-25.2 13.45,-6.9 44.59,-19.87 51.36,-29.76 -27.28,-15.64 -33.48,-22.06 -66.29,-37.51 -48.95,-23.03 -109.06,-43.27 -165.06,-46.25 -33.68,-1.79 -71.1,4.18 -103.63,0.37 -5.75,-7.76 -13.52,-37.21 -17.29,-48.85l-42.67 -126.53c-3.21,-8.84 -7.34,-15.28 -9.35,-24.53 -3.7,-17.04 -10.52,-34.78 -16.26,-51.38 -5.74,-16.59 -11.2,-34 -17.28,-50.42 -1.47,-3.98 -4.19,-7.87 -5.34,-11.59 -5.02,-16.11 -3.32,-15.07 -11.96,-38.76 -3.04,-8.33 -18.24,-43.35 -14.37,-51.72 -3.16,0.91 -1.94,-1.4 -4.1,6.66 -3.02,-2.29 -28.68,-2.78 -28.72,-2.78 -0.13,0.02 -0.51,0.14 -0.66,0.17 -7.04,1.39 -11.41,0.68 -19.49,-0.18 -0.09,-0.01 -0.43,-0.05 -0.52,-0.05 -0.09,0 -0.44,0.03 -0.54,0.04 -0.11,0.01 -0.49,0.11 -0.61,0.13l-16.59 -0.06c-6.35,-1.02 5.91,-1.37 -3.37,0.46l-17.46 -0.5c-0.13,0.02 -0.51,0.14 -0.65,0.17l-19.49 -0.18c-0.09,-0.01 -0.43,-0.05 -0.52,-0.05l-1.15 0.17c-0.14,0.03 -0.54,0.17 -0.7,0.2 -6.7,1.31 -10.09,0.68 -15.89,-0.25 -6.31,-1.02 4.35,-0.84 -1.58,-0.06l-11.21 0.87c-4.95,0.18 -5.32,0.89 -9.48,-3.71 -3.02,6.07 3.93,3.3 -10.09,3.62 -5.4,0.12 -6.47,1.45 -11.06,-3.62l-1.84 4.23 -18.09 -0.55c-5.85,-0.05 -10.52,-0.26 -15.4,-0.14 -6.29,0.16 -10.97,0.57 -16.72,-0.57l-16.07 1.31z"/>
     <path class="fil3" d="M725.33 1054.54c-2.62,4.99 -6.77,8.81 -3.34,16.55 2.53,5.71 6.45,8.18 9.25,13.63 27.02,4.32 36.67,11.22 67.74,8.15 21.67,-2.14 44.45,-10.52 62.38,-18.03 36.3,-15.2 73.74,-37.98 112.42,-48.33 32.4,-8.67 39.2,-4.41 59.79,10.91 15.89,11.8 30.21,24.08 44.04,36.41l60.35 59.46c6.52,7.8 11.48,13.55 18.22,22.42 26.48,-14.79 162.51,-189.74 192.54,-228.16 7.52,-9.62 20.23,-23.55 25.05,-34.68 -13.89,-0.21 -31.6,-5.41 -45.74,-7.57 -48.65,-7.41 -100.2,-8.71 -149.35,-6.32 -139.36,6.79 -282.19,52.71 -396.27,128.22 -25.19,16.67 -53.01,44.59 -57.08,47.33z"/>
     <path class="fil4" d="M1156.12 431.48c-4.07,5.02 -6.11,3.71 -11.49,8.47 0.3,11.84 7.26,41.09 13.1,47.4 5.67,-2.37 6.01,-3.89 13.6,-5.09 6.44,-8.8 54.24,-30.68 67.73,-36.63 58.93,-26.04 212.54,-55.49 263.99,-22.91 46.76,29.62 42.44,101.48 27.33,161.92 -6.55,26.22 -43.6,136.51 -59.82,150.05 -1.57,18.72 -54.32,97.53 -69.58,121.05 -5.49,8.47 -19.13,33.89 -27.21,37.14 -4.82,11.13 -17.53,25.07 -25.05,34.68 -30.03,38.42 -166.07,213.37 -192.54,228.16 -1.84,6.89 -3.07,9.43 -10.17,10.15 -4.67,10.06 -21.58,24.48 -29.62,32.86 -7.28,7.57 -22.86,25.91 -34.09,28.39 -0.66,7.85 -5.03,10.41 -12.49,10.67l-0.09 5.92c-9.9,4.02 -53.25,50.64 -70.29,53.56 -1.29,8.43 -4.2,9.84 -13.09,9.84 -0.52,6.84 -0.64,5.72 -5.25,8.72 -15.1,9.85 -44.19,35.02 -55.72,38.48 -2.06,5.16 -8.97,8.17 -16.67,9.16 -1.97,6.74 -5.04,7.22 -11.41,10.99 -4.89,2.9 -8.85,4.83 -13.62,7.54 -8.65,4.93 -19.57,11.32 -28.89,15.52 -6.77,9.89 -37.91,22.87 -51.36,29.76 -13.51,6.93 -39.32,23.62 -55.17,25.2 -34.83,23.32 -97.81,43.97 -136.61,58 -42.4,15.33 -114.95,31.12 -162.35,33.67 -32.14,1.73 -63.94,-2.32 -82.43,-14.91 -18.5,-12.6 -30.52,-36.74 -35.28,-63.43 -5.16,-28.9 0.67,-62.4 4.88,-88.09 2.97,-18.14 8.78,-40.82 15.49,-57.83 2.99,-7.59 5.06,-10.44 8.48,-16.9 4.85,-18.32 8.75,-38.4 -7.31,-46.35 -2.48,3.44 -3.09,4.01 -4.83,8.82 -1.97,5.41 -0.14,5.43 -6.19,6.5 -0.38,17.17 -25.22,75.43 -30.91,125.63 -3.39,29.97 -3.56,64.18 7.72,92.17 2.72,6.75 4.66,11.18 8.25,17.14 32.86,54.47 108.25,69.36 170.19,64.16 50.98,-4.29 176.29,-41.32 224.58,-64.52 7.32,-3.52 11.58,-4.72 17.86,-8.93 9.06,6.06 7.46,11.13 31.03,5.64 1.56,3.26 1.91,6.72 4.49,9.87l-0.45 -10.97c-8.22,0.01 -22.57,4.13 -26.8,-3.61 1.6,-7.5 52.93,-30.62 65.93,-36.71 16.64,-7.82 56.71,-33.22 71.38,-36.37 2.79,-3.51 49.89,-32.3 55.91,-34.54 4.17,-6.27 4.75,-6.14 13.9,-6.86 1.09,-5.64 1.82,-5.12 6.91,-8.31l24.91 -15.97c9.78,-6.44 21.18,-19.59 36.65,-18.83 0.34,-9.11 4.37,-12.6 13.82,-12.85 2.43,-5.55 24.03,-20.37 30.77,-25.28 6.21,-4.52 27.48,-21.12 33.94,-22.58 2.05,-7 3.82,-7.14 11.31,-9.25 3.61,-6.29 40.79,-39.11 50.98,-48.22 12.02,-10.74 11.45,-14.82 19.82,-10.94 -1.09,-6.43 0.93,-8.67 7.05,-8.96 2.4,-8.02 32.32,-38.64 39.71,-46.07l30.38 -33.03c19.94,-22.96 46.33,-58.31 65.97,-83.59 3.92,-5.05 14.98,-20.66 19.28,-22.9l36.95 -59.09c15.07,-22.03 28.09,-48.87 40.53,-66.61 13.48,-19.22 4.86,-10.07 12.43,-22.83 5.75,-9.72 10.99,-19.86 16.74,-29.83 5.17,-8.97 28.9,-57.86 33.9,-60.49 3.4,-6.57 5.87,-13.21 9.42,-20.26 3.34,-6.65 6.28,-13.97 8.93,-20.68 5.64,-14.3 10.57,-28.08 16.31,-42.93 7.89,-20.41 22.75,-68.21 28.25,-90.2 18.35,-73.42 13.36,-144.13 -30.13,-187.37 -11.04,-10.98 -18.32,-18.55 -32.33,-26.9 -70.16,-41.79 -173.55,-16.6 -244.97,8.37 -18.87,6.6 -75,31.92 -86.58,32.98z"/>
     <path class="fil2" d="M1191.34 1202.9c-6.12,0.29 -8.13,2.53 -7.05,8.96 3.84,8.22 11.63,18.25 16.79,26.14 11.45,17.52 40.63,61.8 42.18,80.38 -30.04,0.52 -52.43,4.22 -79.63,-7.67 -12.88,-5.63 -45.6,-31.98 -50.13,-39.68 -7.49,2.11 -9.26,2.25 -11.31,9.25 8.47,10.4 34.41,55.77 37.86,70.77 -8.3,3.24 -20.52,5.09 -30.18,7.62 -13.24,3.45 -16.61,5.61 -29.66,0.16 -13.62,-5.69 -35.12,-22.67 -42.73,-30.69 -9.45,0.25 -13.48,3.74 -13.82,12.85 6.95,6.2 11.52,11.74 18.62,19.11 6.78,7.03 11.79,9.48 17.13,19.07 0.01,-0.01 4.44,-1.07 3.3,-9.62 -0.73,-5.47 -2.25,-3.71 -2.78,-10.13 22.8,1.9 43.49,29.05 55.59,33.26 32.62,11.36 48.14,-14.17 71.89,-2.78 14.14,6.79 21.04,21.41 16.37,41.44 -12.57,0 -13.49,0.51 -21.16,5.64 0,23.31 11.28,32.11 11.28,64.87 -8.3,4.39 -11.43,5.05 -15.51,22.56 -15.5,0 -30.28,1.82 -35.82,12.13 -7.29,13.55 -1.17,26.95 -0.84,41.46 10.71,0 15.43,1.51 25.36,1.44 8.57,-0.05 20.84,1.91 26.45,1.11 28.9,-4.13 54.14,-49.23 68.35,-72.78 3.46,-5.74 6.1,-13.62 11,-17.2 6.18,1.44 13.87,6.16 18.56,9.65 4.23,3.14 11.94,10.23 16.7,11.51 18.79,-12.59 21.33,-30.38 51.74,-15.08 5.26,2.64 7.43,4.47 12.64,7.11l41.39 19.25c2.89,-12.37 13.72,-28.68 5.66,-42.32 -7.59,-12.82 -12.28,-17.04 -21.17,-33.83 5.37,-8.03 6.17,-10.62 14.47,-16.56l20.79 -11.64c-0.13,-5.93 -1.24,-6.84 -1.41,-14.1 -0.55,-22.67 0.46,-21.16 -26.79,-21.16 -6.97,-13.18 -8.34,-17.47 0.55,-30.48 5.47,-8.01 10.71,-18.94 17.4,-24.9 24.14,-21.47 36.89,10.66 55.38,-30.65 5.84,-13.05 7.88,-40.93 -2.56,-52.44 -2.03,-2.24 -10.21,-7.57 -13.4,-9.17 -25.49,-12.79 -45.27,4.74 -55.97,20.71 -15.76,-0.35 -41.56,-11.52 -55.45,-19.29 -4.52,-2.53 -11.97,-7.71 -16.47,-8.91 0,-15.83 -3.98,-46.49 1.53,-61.94 5.98,-16.79 21.52,-27.1 29.93,-36.78 -5.28,-3.84 -50.23,-2.01 -55.72,-1.59 -5.51,10.99 -11.2,31.21 -15.57,43.55 -5.26,14.84 -10.24,28.35 -15.06,42.76l-29.93 83.12c-0.14,0.21 -0.62,1.08 -0.72,0.85 -0.11,-0.23 -0.49,0.57 -0.76,0.83 -7.71,-16.77 -47.65,-81.35 -57.26,-96.17z"/>
     <path class="fil2" d="M941.28 1390.94c5.68,8.74 17.7,15.69 24.66,22.94 15.81,16.47 -5.36,53.52 -80.56,11.6 -14.67,3.14 -54.74,28.55 -71.38,36.37 -13,6.09 -64.33,29.21 -65.93,36.71 4.23,7.74 18.58,3.61 26.8,3.61l0.45 10.97c-2.76,37.88 24.59,95.98 40.22,109 5.6,4.66 14.87,5.01 22.89,6.73 21.89,4.7 23.21,10.89 32.05,28.59 27.43,54.86 26.49,29.23 46.43,42.42 7.06,4.67 10.34,9.49 16.46,14.56 21.26,17.62 80.83,0.49 91.3,-15.14 -13.32,-8.91 -39.68,-21.53 -19.47,-42.03 20.67,-20.95 8.57,29.15 45.75,-84 17.99,-54.78 -10.76,-81.66 -15.83,-100.22 -2.8,-10.24 5.07,-26.53 -2.22,-45.71 -6.47,-17.02 -0.68,-11 1.63,-20.1 -14.03,-0.11 -31.82,-3.26 -44.58,-7.42 -9.4,-3.06 -29.26,-10.79 -34.78,-15.72 -9.14,0.72 -9.72,0.59 -13.9,6.86z"/>
     <path class="fil1" d="M1062.74 1755.7l-69.1 0c-3.81,14.29 -19.86,36.67 22.57,36.67l29.62 -1.41 -7.97 18.82c-2.18,4.3 -2.76,4.97 -5.29,8.81l-28.22 40.89c-8.63,10.98 -17.18,18.41 -25.89,29.11 -7.71,9.47 -17.69,20.83 -34.17,20.83 -13.78,0 -7.25,-64.87 -33.85,-64.87 -7.9,0 -16.95,10.98 -21.6,16.48 -4.57,5.41 -30.97,32.88 -34.81,32.88 -7.48,0 -16.74,-17.33 -20.18,-23.54 -16.09,-29.01 -26.22,-28.79 -50.56,-9.12 -6.55,5.29 -14.37,17.83 -22.34,19.97 0.18,-2.25 18.8,-69.1 0,-69.1 -11.25,0 -17.71,3.81 -25.73,10.94l-23.21 24.74c-3.33,3.96 -3.98,5.32 -7.8,9.12 -4.95,4.91 -12.16,12.75 -19.41,14.44 1.9,-8.12 14.98,-48.41 -3.42,-51.27 -22.51,-3.5 -79.78,68.98 -79.78,75.24 0,1.43 6.13,15.18 7.05,16.93l17.91 -18.75c38.56,-46.14 6.06,29.8 6.06,42.72 0,3.8 0.67,3.89 1.41,7.05 11.64,0.97 15.5,4.66 31.03,-15.51 11.76,-15.27 45.7,-57.75 63.45,-59.23 0,13.7 -4.57,28.81 -7.34,40.6 -1.41,6.02 -2.98,12.74 -4.31,19.66 -2.11,10.89 -1.95,10.48 -1.03,21.53 21.45,0 25.16,-11.44 39.04,-28.66 9.16,-11.36 22.05,-31.99 38.52,-31.99 19.74,0 35.64,61.36 73.71,22.94 6.26,-6.32 12.48,-13.62 22.2,-15.89 12.09,8.1 13.68,31.89 25.31,40.97 15.32,11.95 34.94,1.3 47.75,-7.39 10.1,-6.85 15.46,-12.82 23.89,-21.24 11.33,-11.33 22.99,-22.25 33.21,-34.49 3.4,-4.07 6.89,-8.85 12.28,-10.29 -2.11,25.33 -12.7,39.74 -12.7,74.74 0,6.78 5.07,22.56 11.28,22.56l0.68 0c14.12,0 15.76,-0.21 27.18,-11.63 9.36,-9.36 16.63,-18.42 26.72,-26.86l43.06 -40.14c6.63,-7.45 27.82,-40.02 38.68,-19.63 8.76,16.44 -2,41.61 -7.12,56.83 -5.63,16.72 -15.72,34.37 4.76,34.37 24.74,0 46.04,-27.36 66.28,-38.08 -1.76,7.59 -8.46,14.41 -8.46,22.56 0,9.72 8.62,18.33 18.33,18.33 20.12,0 43,-28.33 57.37,-39.93 5.48,-4.43 11.96,-11.83 18.78,-13.66 3.82,16.39 6.72,36.66 28.21,36.66 17.59,0 38.02,-17.59 45.13,-28.2 -1.6,-6.86 -5.45,-10.06 -7.05,-16.93 -11.41,0.95 -8.03,11.28 -22.56,11.28 -18.55,0 6.56,-76.13 -39.06,-39.06 -4.7,3.82 -8.72,7.47 -13.12,10.86 -12.57,9.68 -26.52,28.76 -42.31,32.44 7.56,-14.29 32.02,-38.37 43.37,-49.71 11.59,-11.59 22.55,-25.03 35.81,-34.71 1.82,-1.33 4.93,-3.39 6.42,-4.86 5.95,-5.84 4.66,-13.13 4.66,-20.72 -25.82,0 -36.49,7.98 -54.67,22.89 -12.3,10.08 -25.26,19.79 -36.64,31.05 -3.21,3.17 -6.55,5.29 -8.81,8.11 -7.07,8.83 -7.76,9.65 -17.52,16.33 -4.25,2.92 -5.47,4.52 -8.93,8 -7.95,8.03 -28.8,29.02 -39.83,29.26 5.44,-23.32 23.64,-60.13 3.96,-82.93 -6.66,-7.71 -22.66,-22.83 -32.16,-22.83 -10.33,0 -21.95,8.62 -27.94,15.85 -8.95,10.8 13.2,6.26 -33.74,55.04l-30.57 27.25c-3.93,3.01 -7.83,5.74 -13.53,6.21 0,-24.49 4.76,-42.77 9.86,-62.06 2.45,-9.26 5.5,-19.63 8.29,-28.37 2.17,-6.76 7.06,-22.11 7.23,-29.44 16.12,-3.75 19.74,-4.18 19.74,-22.56 0,-8.21 -4.23,-12.31 -4.23,-21.16 0,-9.41 11.6,-33.85 -5.64,-33.85 -9.87,0 -25.99,28.55 -28.21,38.08z"/>
     <path class="fil0" d="M1346.67 1017.31c-2.36,9.45 -6.16,18.14 -9.22,27.34 -3.45,10.35 -4.25,19.22 -7.78,28.89 -6.18,16.86 -14.62,37.58 -19.02,54.41 5.49,-0.41 50.45,-2.25 55.72,1.59 33.09,-27.68 57.21,-34.08 76.55,-48.53 2.08,-1.55 2.86,-2.28 4.6,-3.86l70.45 -48.02c7.66,-5.11 14.3,-9.32 22.01,-14.66 7.45,-5.17 13.35,-9.39 20.86,-14.4 7.68,-5.12 14.33,-9.55 22.01,-14.67 9.89,-6.6 55.58,-37.14 62.75,-44.43 2.4,-2.43 5.36,-7.66 6.63,-13.56l0 -10.91c-2.03,-7.8 -9.27,-14.56 -26.78,-15.44 -13.16,-0.67 -21.83,1.42 -35.26,1.42 -4.28,6.39 -9.29,12.59 -11.28,21.16 -5.66,0 -11.36,0.1 -17.01,0.07 -10.73,-0.04 -29.79,-8.83 -32.35,-19.82 7.01,-1.87 13.84,-6.94 15.51,-14.1 -8.23,-12.29 -9.28,-3.97 -11.16,-25.52 -1.05,-12.05 -3.28,-19.98 -8.13,-28.53l-13.51 -23.16c-4.66,-5.5 -17.03,-11.19 -25.03,-13.05l0 -21.09c-5.01,2.63 -28.73,51.52 -33.9,60.49 -5.75,9.97 -10.99,20.12 -16.74,29.83 -7.56,12.76 1.06,3.61 -12.43,22.83 -12.44,17.74 -25.46,44.58 -40.53,66.61l-36.95 59.09z"/>
     <path class="fil3" d="M906.37 928.8c47.45,-12.55 91.42,-28.19 141.35,-38.54 124.86,-25.88 143.23,-18.43 251.94,-16.94l9.89 -0.47c2.55,-3.8 27.95,-79.09 28.03,-84 -72.28,-5.87 -190.84,23.22 -252.01,47.62 -32.46,12.95 -62.87,27 -93.96,41.47 -18.56,8.64 -79.12,39.85 -85.23,50.86z"/>
     <path class="fil1" d="M684.03 839.83c-74.21,-23.34 -158.39,-38.9 -242.31,-38.9 2.64,14.24 5.26,30.66 11.36,42.75 6.23,12.34 7.64,27.1 14.17,38.97 38.55,0 74.37,-4.05 113.19,-4.09 75.52,-0.08 176.46,17.47 248.51,40.59 10.64,3.41 29.79,14.41 44.87,12.9 -4.12,-5.25 -15.16,-9.68 -21.58,-13.68 -21.74,-13.54 -44.81,-26.9 -68.2,-37.56 -32.79,-14.95 -63.31,-29.43 -100.02,-40.97z"/>
     <path class="fil1" d="M868.7 907.3c-4.77,-1.96 -11.91,-11.72 -17.59,-15.95 -21.24,-15.77 -36.8,-29.7 -62.19,-47.85 -57.48,-41.09 -124.25,-75.12 -192.73,-100.59 -31.05,-11.55 -79.56,-29.21 -114.65,-32.72 2.38,16.33 13.06,38.02 18.8,53.83 11.91,32.84 6.31,24.65 42.85,30.47 88.47,14.07 146.24,33.79 227.01,66.33 16.11,6.49 91.7,46.43 98.5,46.48z"/>
     <path class="fil3" d="M911.43 905.47c14.01,-5.21 32.61,-17.81 47.13,-25.35 16.14,-8.37 30.24,-16.35 47.09,-24.9 31.62,-16.03 67.64,-29.78 102.6,-41.18 37.56,-12.25 74.56,-21.38 114.82,-29.21 43.89,-8.53 43.07,-4.05 49.29,-22.45 4.86,-14.37 15.08,-40.88 17.21,-54.14 -56.02,0 -171.31,48.39 -214.47,72.62 -31.56,17.72 -62.11,35.67 -87.42,56.48l-58.13 48.99c-7.23,6.54 -12.8,9.58 -18.13,19.14z"/>
     <path class="fil3" d="M1191.34 1202.9c9.61,14.82 49.55,79.4 57.26,96.17 0.28,-0.25 0.66,-1.06 0.76,-0.83 0.1,0.23 0.59,-0.64 0.72,-0.85l29.93 -83.12c4.83,-14.41 9.8,-27.93 15.06,-42.76 4.38,-12.33 10.07,-32.55 15.57,-43.55 4.4,-16.83 12.84,-37.56 19.02,-54.41 3.53,-9.67 4.33,-18.54 7.78,-28.89 3.06,-9.2 6.87,-17.89 9.22,-27.34 -4.29,2.25 -15.36,17.85 -19.28,22.9 -19.63,25.28 -46.02,60.63 -65.97,83.59l-30.38 33.03c-7.4,7.43 -37.32,38.05 -39.71,46.07z"/>
     <path class="fil1" d="M438.36 1855.46c0.72,-5.74 5.26,-16.25 7.95,-20.97 1.74,-3.08 9.43,-15.6 14.08,-11.01 4.58,4.52 -14.57,31.12 -22.03,31.98zm-44.08 39.85c0,7.21 4.95,8.64 5.64,16.93 5.33,-1.43 5.13,-3.6 12.69,-4.23 1.05,3.91 8.91,17.9 11.24,21.2 12.94,18.36 41.31,10.66 56.19,2.5 14.55,-7.97 17.26,-13.39 24.24,-18.06 -1.76,-7.56 -5.45,-12.86 -7.05,-19.74 -10.05,2.34 -19.14,11.29 -32.44,11.29 -7.48,0 -21.15,-3.65 -21.15,-12.7 0,-21.8 70.84,-62.94 40.4,-101.04 -18.75,-23.47 -62.47,27.25 -71.47,62.91 -1.88,7.46 -1.61,17.9 -5.95,23.67 -4.13,5.48 -12.33,8.63 -12.33,17.28z"/>
     <path class="fil1" d="M1113.49 1271.03c4.53,7.7 37.25,34.05 50.13,39.68 27.21,11.9 49.59,8.2 79.63,7.67 -1.55,-18.58 -30.72,-62.86 -42.18,-80.38 -5.16,-7.89 -12.94,-17.91 -16.79,-26.14 -8.36,-3.87 -7.8,0.2 -19.82,10.94 -10.19,9.12 -47.37,41.94 -50.98,48.22z"/>
     <path class="fil2" d="M731.24 1084.73c64.79,53.95 174.2,-12.59 237.04,-35.48 9.22,-3.36 19.17,-6.33 29.18,-8.84 22.79,-5.74 31.62,11.22 50.91,25.98 12.02,9.2 49.25,45.17 61.12,57.33 5.52,5.65 33.2,35.96 36.52,42.16 7.1,-0.72 8.33,-3.26 10.17,-10.15 -6.74,-8.87 -11.71,-14.62 -18.22,-22.42l-60.35 -59.46c-13.83,-12.33 -28.15,-24.6 -44.04,-36.41 -20.59,-15.32 -27.39,-19.58 -59.79,-10.91 -38.68,10.34 -76.12,33.13 -112.42,48.33 -17.93,7.51 -40.71,15.89 -62.38,18.03 -31.07,3.07 -40.72,-3.83 -67.74,-8.15z"/>
     <path class="fil1" d="M1037.47 1328.13c7.61,8.02 29.11,25 42.73,30.69 13.05,5.45 16.43,3.29 29.66,-0.16 9.66,-2.52 21.87,-4.37 30.18,-7.62 -3.44,-15.01 -29.39,-60.37 -37.86,-70.77 -6.46,1.47 -27.73,18.06 -33.94,22.58 -6.74,4.9 -28.35,19.73 -30.77,25.28z"/>
     <path class="fil1" d="M955.17 1384.09c5.52,4.94 25.38,12.66 34.78,15.72 12.76,4.16 30.55,7.31 44.58,7.42 11.95,0.45 17.93,-4.38 25.39,-8.33l-0.52 -19.74c-5.34,-9.59 -10.35,-12.03 -17.13,-19.07 -7.1,-7.37 -11.67,-12.91 -18.62,-19.11 -15.47,-0.76 -26.87,12.39 -36.65,18.83l-24.91 15.97c-5.1,3.19 -5.83,2.67 -6.91,8.31z"/>
     <path class="fil1" d="M885.37 1425.48c75.2,41.92 96.37,4.86 80.56,-11.6 -6.95,-7.25 -18.98,-14.2 -24.66,-22.94 -6.02,2.24 -53.12,31.03 -55.91,34.54z"/>
     <path class="fil1" d="M514.16 1860.05c-10.82,20.44 -12.69,7.18 -12.69,25.39 6.11,0.14 5.76,1.26 12.64,1.45 19.91,0.58 49.04,2 69.06,-0.14 14.72,-1.57 26.53,-33.56 -22.4,-29.45 -14.85,1.25 -30.14,2.75 -46.61,2.75z"/>
     <path class="fil2" d="M986.33 1307.12c8.89,-0.01 11.79,-1.41 13.09,-9.84 -17.03,-14.46 -33.76,-27.82 -51.4,-41.74 -10.26,-8.1 -44.31,-36.68 -55.11,-40.37l-7.29 16.29c8.07,4.18 18.17,12.67 25.79,18.39l49.98 37.44c8.51,6.69 15.12,13.8 24.94,19.83z"/>
     <path class="fil2" d="M1069.8 1237.79c7.46,-0.26 11.83,-2.82 12.49,-10.67 -23.89,-23.74 -109.08,-92.18 -134.02,-94.7 -1.25,3.51 -2.57,6.49 -2.42,11.29 24.98,12.19 47.52,26.59 66.85,41.54 22.47,17.37 38.15,34.55 57.1,52.54z"/>
     <path class="fil1" d="M1450.55 1731.72l0 49.36 11.28 0 0 -35.26 9.56 35.33 11.59 -0.07c0.43,-5.13 2.33,-10.73 3.67,-16.08l4.79 -16.36 0 32.44 11.28 0 0 -53.59 -16.93 0c-2.53,10.86 -6.03,22.02 -8.46,32.43 -0.18,-0.3 -0.39,-1.15 -0.45,-0.95 -1.14,3.58 -5.71,-31.48 -12.24,-31.48 -10.11,0 -14.1,-1.4 -14.1,4.22z"/>
     <path class="fil1" d="M917.48 1789.54c36.51,0 55.06,-86.67 8.01,-48.39 -6.51,5.3 -9.58,8.43 -15.44,14.17 -4.89,4.79 -9.36,11.69 -8.83,19.77 0.6,9.26 7.12,14.45 16.26,14.45z"/>
     <path class="fil2" d="M908.7 1363.48c7.7,-0.99 14.61,-4.01 16.67,-9.16 -6.68,-4.99 -14.48,-11.84 -20.68,-17.37 -7.36,-6.57 -14.07,-11.68 -20.46,-17.59l-31.02 -26.77c-3.33,-3.14 -6.13,-5.32 -10.64,-8.22 -4.54,19.18 -4.61,15.48 7.22,25.71l58.9 53.41z"/>
     <path class="fil1" d="M1402.61 1737.36l15.51 0 0 43.72 12.69 0 0 -43.72 15.51 0c0,-13.2 4.7,-9.87 -43.71,-9.87l0 9.87z"/>
     <path class="fil3" d="M438.36 1855.46c7.45,-0.86 26.61,-27.45 22.03,-31.98 -4.65,-4.59 -12.34,7.93 -14.08,11.01 -2.68,4.72 -7.22,15.23 -7.95,20.97z"/>
     <path class="fil2" d="M731.24 1084.73c-2.8,-5.45 -6.72,-7.93 -9.25,-13.63 -3.43,-7.74 0.72,-11.56 3.34,-16.55l-0.64 -1.17c-0.29,0.24 -0.75,0.2 -0.89,0.69 -0.12,0.49 -0.68,0.53 -0.84,0.7l-10.84 16.64c5.03,4.7 11.05,10.21 19.12,13.32z"/>
    </g>
    <path class="fil5" d="M4423.55 238.37l-243.36 0c-13.43,50.31 -69.93,129.13 79.47,129.13l104.29 -4.97 -28.07 66.28c-7.66,15.16 -9.71,17.51 -18.64,31.03l-99.37 144c-30.4,38.68 -60.5,64.82 -91.18,102.52 -27.14,33.34 -62.29,73.35 -120.33,73.35 -48.52,0 -25.55,-228.46 -119.2,-228.46 -27.83,0 -59.69,38.67 -76.05,58.04 -16.09,19.05 -109.08,115.79 -122.6,115.79 -26.36,0 -58.94,-61.02 -71.07,-82.9 -56.67,-102.16 -92.35,-101.38 -178.04,-32.11 -23.06,18.65 -50.62,62.82 -78.68,70.32 0.66,-7.91 66.21,-243.37 0,-243.37 -39.62,0 -62.37,13.42 -90.61,38.52l-81.75 87.12c-11.72,13.95 -14.01,18.71 -27.49,32.09 -17.42,17.29 -42.8,44.91 -68.34,50.87 6.66,-28.59 52.76,-170.51 -12.05,-180.57 -79.28,-12.32 -280.98,242.92 -280.98,264.99 0,5.01 21.58,53.45 24.84,59.6l63.09 -66.02c135.81,-162.48 21.33,104.97 21.33,150.46 0,13.41 2.37,13.68 4.97,24.82 40.98,3.42 54.59,16.39 109.27,-54.62 41.43,-53.78 160.94,-203.39 223.48,-208.6 0,48.27 -16.08,101.47 -25.86,142.99 -4.99,21.18 -10.49,44.86 -15.2,69.24 -7.42,38.35 -6.87,36.89 -3.64,75.82 75.54,0 88.62,-40.27 137.5,-100.9 32.26,-40.01 77.66,-112.66 135.65,-112.66 69.5,0 125.53,216.09 259.58,80.78 22.06,-22.25 43.94,-47.97 78.16,-55.94 42.58,28.52 48.2,112.31 89.16,144.28 53.93,42.08 123.05,4.58 168.17,-26.01 35.58,-24.13 54.43,-45.13 84.12,-74.82 39.91,-39.91 80.97,-78.37 116.93,-121.45 11.97,-14.35 24.28,-31.17 43.24,-36.23 -7.43,89.22 -44.71,139.93 -44.71,263.22 0,23.87 17.84,79.47 39.74,79.47l2.4 0c49.7,-0.01 55.52,-0.76 95.71,-40.95 32.96,-32.96 58.56,-64.89 94.12,-94.61l151.66 -141.35c23.35,-26.27 97.99,-140.93 136.24,-69.14 30.85,57.89 -7.05,146.55 -25.08,200.15 -19.82,58.89 -55.39,121.05 16.76,121.05 87.14,0 162.15,-96.37 233.43,-134.09 -6.21,26.71 -29.79,50.77 -29.79,79.46 0,34.23 30.33,64.57 64.56,64.57 70.85,0 151.44,-99.78 202.06,-140.63 19.3,-15.57 42.11,-41.67 66.13,-48.09 13.45,57.72 23.67,129.12 99.33,129.12 61.95,0 133.92,-61.96 158.92,-99.33 -5.62,-24.15 -19.2,-35.45 -24.82,-59.6 -40.18,3.34 -28.28,39.73 -79.47,39.73 -65.32,0 23.1,-268.14 -137.57,-137.57 -16.53,13.43 -30.69,26.29 -46.19,38.23 -44.25,34.07 -93.4,101.3 -148.99,114.24 26.63,-50.32 112.76,-135.11 152.73,-175.08 40.83,-40.83 79.4,-88.16 126.09,-122.23 6.41,-4.68 17.35,-11.93 22.62,-17.12 20.95,-20.59 16.41,-46.24 16.41,-72.97 -90.94,0 -128.51,28.11 -192.54,80.59 -43.32,35.5 -88.96,69.71 -129.05,109.34 -11.3,11.17 -23.08,18.64 -31.04,28.56 -24.92,31.1 -27.33,33.97 -61.68,57.52 -14.98,10.28 -19.26,15.9 -31.43,28.17 -28.02,28.29 -101.44,102.19 -140.29,103.06 19.14,-82.14 83.27,-211.78 13.95,-292.07 -23.46,-27.16 -79.8,-80.42 -113.27,-80.42 -36.39,0 -77.31,30.36 -98.39,55.82 -31.52,38.06 46.49,22.07 -118.8,193.84l-107.66 95.98c-13.86,10.59 -27.56,20.21 -47.65,21.89 0,-86.25 16.76,-150.63 34.74,-218.57 8.64,-32.64 19.37,-69.13 29.21,-99.91 7.62,-23.82 24.88,-77.86 25.47,-103.69 56.76,-13.22 69.52,-14.74 69.52,-79.46 0,-28.92 -14.89,-43.35 -14.89,-74.5 0,-33.14 40.86,-119.2 -19.87,-119.2 -34.74,0 -91.51,100.53 -99.33,134.1z"/>
    <path class="fil5" d="M2224.66 589.71c2.56,-20.21 18.55,-57.22 27.99,-73.85 6.14,-10.83 33.22,-54.95 49.6,-38.77 16.12,15.94 -51.33,109.58 -77.59,112.62zm-155.23 140.33c0,25.4 17.43,30.4 19.87,59.6 18.79,-5.02 18.09,-12.69 44.7,-14.9 3.68,13.79 31.37,63.04 39.57,74.67 45.57,64.66 145.47,37.52 197.88,8.81 51.25,-28.09 60.8,-47.16 85.37,-63.62 -6.2,-26.64 -19.18,-45.31 -24.83,-69.53 -35.39,8.25 -67.41,39.74 -114.23,39.74 -26.33,0 -74.5,-12.84 -74.5,-44.71 0,-76.78 249.49,-221.64 142.27,-355.83 -66.04,-82.63 -219.98,95.95 -251.71,221.57 -6.62,26.26 -5.66,63.01 -20.95,83.33 -14.53,19.3 -43.44,30.41 -43.44,60.86z"/>
    <path class="fil5" d="M2491.59 605.88c-38.08,71.98 -44.69,25.3 -44.69,89.4 21.52,0.48 20.32,4.43 44.52,5.13 70.1,2.03 172.69,7.03 243.2,-0.49 51.83,-5.53 93.44,-118.18 -78.87,-103.71 -52.32,4.4 -106.15,9.67 -164.16,9.67z"/>
    <path class="fil5" d="M3912.01 357.56c128.56,0 193.89,-305.24 28.21,-170.43 -22.94,18.66 -33.74,29.68 -54.37,49.9 -17.22,16.87 -32.99,41.17 -31.12,69.63 2.13,32.6 25.06,50.91 57.28,50.91z"/>
    <polygon class="fil6" points="2246.06,1448.42 2246.06,1481.49 2112.32,1481.49 2112.32,1233.68 2246.06,1233.68 2246.06,1267.12 2148.35,1267.12 2148.35,1339.94 2246.06,1339.94 2246.06,1373 2148.35,1373 2148.35,1448.42 "/>
    <path id="1" class="fil6" d="M2323.34 1327.68l0 153.81 -34.55 0 0 -153.81 -16.35 0 0 -31.95 16.35 0 0 -8.55c0,-17.34 7.06,-31.45 21.18,-42.36 9.66,-7.43 23.65,-11.14 41.98,-11.14l4.46 0 0 30.47 -3.78 0c-19.51,0 -29.29,7.68 -29.29,23.03l0 8.55 33.06 0 0 31.95 -33.06 0z"/>
    <path id="2" class="fil6" d="M2428.48 1327.68l0 153.81 -34.55 0 0 -153.81 -16.35 0 0 -31.95 16.35 0 0 -8.55c0,-17.34 7.06,-31.45 21.18,-42.36 9.66,-7.43 23.65,-11.14 41.98,-11.14l4.46 0 0 30.47 -3.78 0c-19.51,0 -29.29,7.68 -29.29,23.03l0 8.55 33.06 0 0 31.95 -33.06 0z"/>
    <path id="3" class="fil6" d="M2625.39 1423.16l34.92 0c-6.93,19.32 -18.45,34.67 -34.55,46.07 -16.1,11.39 -34.18,17.09 -54.24,17.09 -26.01,0 -48.3,-9.6 -66.87,-28.79 -18.57,-19.2 -27.86,-42.29 -27.86,-69.29 0,-27.25 9.29,-50.53 27.86,-69.85 18.57,-19.32 41.12,-28.98 67.62,-28.98 25.76,0 47.86,9.47 66.32,28.42 18.45,18.95 27.68,41.67 27.68,68.17 0,3.96 -0.37,9.91 -1.11,17.83l-153.44 0c3.71,15.23 11.09,27.49 22.1,36.71 11.02,9.23 24.09,13.81 39.2,13.81 22.79,0 40.25,-10.4 52.39,-31.21zm-99.2 -81.73c-7.43,8.42 -12.26,20.3 -14.49,35.66l120 0c-0.75,-15.36 -7,-28.48 -18.76,-39.38 -11.76,-10.9 -25.45,-16.35 -41.05,-16.35 -18.57,0 -33.81,6.68 -45.7,20.06z"/>
    <path id="4" class="fil6" d="M2837.52 1420.19l38.64 0c-6.94,20.31 -18.57,36.41 -34.93,48.29 -16.35,11.89 -35.17,17.83 -56.47,17.83 -26.75,0 -49.23,-9.41 -67.43,-28.24 -18.21,-18.82 -27.3,-42.1 -27.3,-69.84 0,-27.25 9.16,-50.28 27.49,-69.1 18.33,-18.82 40.99,-28.24 67.99,-28.24 21.3,0 40.56,6.38 57.77,19.13 17.21,12.76 28.17,28.67 32.88,47.74l-38.64 0c-12.88,-23.28 -30.22,-34.93 -52.01,-34.93 -17.59,0 -32.14,6.2 -43.66,18.64 -11.52,12.45 -17.28,28.05 -17.28,46.75 0,17.95 5.89,33.49 17.65,46.56 11.76,13.06 25.82,19.56 42.17,19.56 11.14,0 21.55,-3.03 31.21,-9.16 9.66,-6.13 16.97,-14.49 21.92,-25.02z"/>
    <polygon id="5" class="fil6" points="2978.33,1327.68 2947.49,1327.68 2947.49,1481.49 2912.94,1481.49 2912.94,1327.68 2887.68,1327.68 2887.68,1295.73 2912.94,1295.73 2912.94,1233.68 2947.49,1233.68 2947.49,1295.73 2978.33,1295.73 "/>
    <path id="6" class="fil6" d="M3006.19 1295.73l34.55 0 0 185.76 -34.55 0 0 -185.76zm0 -62.05l34.55 0 0 40.87 -34.55 0 0 -40.87z"/>
    <polygon id="7" class="fil6" points="3196.03,1295.73 3233.18,1295.73 3160.36,1481.49 3135.85,1481.49 3062.29,1295.73 3099.44,1295.73 3148.11,1428.73 "/>
    <path id="8" class="fil6" d="M3387.36 1423.16l34.92 0c-6.93,19.32 -18.45,34.67 -34.55,46.07 -16.1,11.39 -34.18,17.09 -54.24,17.09 -26.01,0 -48.3,-9.6 -66.87,-28.79 -18.57,-19.2 -27.86,-42.29 -27.86,-69.29 0,-27.25 9.29,-50.53 27.86,-69.85 18.57,-19.32 41.12,-28.98 67.62,-28.98 25.76,0 47.86,9.47 66.32,28.42 18.45,18.95 27.68,41.67 27.68,68.17 0,3.96 -0.37,9.91 -1.11,17.83l-153.44 0c3.71,15.23 11.09,27.49 22.1,36.71 11.02,9.23 24.09,13.81 39.2,13.81 22.79,0 40.25,-10.4 52.39,-31.21zm-99.2 -81.73c-7.43,8.42 -12.26,20.3 -14.49,35.66l120 0c-0.75,-15.36 -7,-28.48 -18.76,-39.38 -11.76,-10.9 -25.45,-16.35 -41.05,-16.35 -18.57,0 -33.81,6.68 -45.7,20.06z"/>
    <path id="9" class="fil6" d="M3643.34 1358.14l156.41 0c-0.5,36.66 -12.94,67.18 -37.34,91.58 -24.4,24.4 -54.55,36.59 -90.47,36.59 -35.17,0 -65.08,-12.44 -89.72,-37.33 -24.64,-24.89 -36.97,-55.17 -36.97,-90.83 0,-36.16 12.26,-66.75 36.78,-91.77 24.52,-25.02 54.36,-37.52 89.54,-37.52 23.28,0 44.83,6.01 64.64,18.02 19.81,12.01 35.29,28.3 46.44,48.86l-41.98 0c-20.8,-22.54 -43.34,-33.81 -67.62,-33.81 -25.26,0 -46.81,9.41 -64.64,28.24 -17.83,18.82 -26.75,41.48 -26.75,67.99 0,25.75 9.04,48.05 27.12,66.87 18.08,18.83 39.63,28.24 64.64,28.24 21.55,0 41.12,-7.43 58.7,-22.29 10.9,-9.17 19.81,-22.42 26.75,-39.75l-115.54 0 0 -33.06z"/>
    <path id="10" class="fil6" d="M3923.46 1290.9c27.74,0 51.39,9.41 70.95,28.24 19.57,18.82 29.35,41.61 29.35,68.36 0,27.25 -9.78,50.53 -29.35,69.85 -19.56,19.32 -43.22,28.98 -70.95,28.98 -27.49,0 -51.02,-9.66 -70.59,-28.98 -19.56,-19.32 -29.35,-42.6 -29.35,-69.85 0,-26.75 9.78,-49.54 29.35,-68.36 19.57,-18.82 43.1,-28.24 70.59,-28.24zm0.18 163.47c18.14,0 33.62,-6.44 46.37,-19.38 12.82,-12.94 19.2,-28.55 19.2,-46.75 0,-17.96 -6.37,-33.37 -19.2,-46.2 -12.75,-12.82 -28.23,-19.2 -46.37,-19.2 -18.14,0 -33.62,6.38 -46.38,19.2 -12.82,12.82 -19.2,28.24 -19.2,46.2 0,18.2 6.38,33.81 19.2,46.75 12.76,12.94 28.24,19.38 46.38,19.38z"/>
    <polygon id="11" class="fil6" points="4161.97,1295.73 4199.12,1295.73 4126.3,1481.49 4101.78,1481.49 4028.23,1295.73 4065.38,1295.73 4114.04,1428.73 "/>
    <path id="12" class="fil6" d="M4353.3 1423.16l34.92 0c-6.93,19.32 -18.45,34.67 -34.55,46.07 -16.1,11.39 -34.18,17.09 -54.24,17.09 -26.01,0 -48.3,-9.6 -66.87,-28.79 -18.57,-19.2 -27.86,-42.29 -27.86,-69.29 0,-27.25 9.29,-50.53 27.86,-69.85 18.57,-19.32 41.12,-28.98 67.62,-28.98 25.76,0 47.86,9.47 66.32,28.42 18.45,18.95 27.68,41.67 27.68,68.17 0,3.96 -0.37,9.91 -1.11,17.83l-153.44 0c3.71,15.23 11.09,27.49 22.1,36.71 11.02,9.23 24.09,13.81 39.2,13.81 22.79,0 40.25,-10.4 52.39,-31.21zm-99.2 -81.73c-7.43,8.42 -12.26,20.3 -14.49,35.66l120 0c-0.75,-15.36 -7,-28.48 -18.76,-39.38 -11.76,-10.9 -25.45,-16.35 -41.05,-16.35 -18.57,0 -33.81,6.68 -45.7,20.06z"/>
    <path id="13" class="fil6" d="M4462.89 1380.06l0 101.43 -34.55 0 0 -185.76 32.32 0 0 16.71c11.14,-13.62 27.12,-20.8 47.92,-21.55l0 35.67c-30.46,2.48 -45.7,20.31 -45.7,53.49z"/>
    <path id="14" class="fil6" d="M4699.92 1367.43l0 114.05 -34.55 0 0 -100.81c0,-17.83 -2.6,-30.77 -7.8,-38.95 -7.99,-12.57 -20.93,-18.89 -38.82,-18.89 -15.17,0 -26.99,5.14 -35.42,15.36 -8.48,10.28 -12.69,24.46 -12.69,42.48l0 100.81 -35.29 0 0 -185.76 32.32 0 0 19.69c12.38,-16.35 30.71,-24.52 54.98,-24.52 23.03,0 41.67,7.06 55.91,21.18 14.24,14.12 21.36,32.57 21.36,55.36z"/>
    <path id="15" class="fil6" d="M4929.51 1295.73l0 185.76 -31.95 0 0 -28.98c-5.94,8.91 -12.63,15.72 -20.06,20.43 -14.36,8.92 -30.96,13.37 -49.78,13.37 -26.99,0 -49.54,-9.29 -67.62,-27.86 -18.08,-18.57 -27.12,-41.61 -27.12,-69.1 0,-28.24 9.23,-51.71 27.68,-70.4 18.45,-18.7 41.55,-28.05 69.29,-28.05 14.12,0 27.37,2.97 39.75,8.86 12.39,5.88 21.67,13.56 27.86,23.09l0 -27.12 31.95 0zm-98.45 158.63c17.59,0 32.63,-6.38 45.14,-19.07 12.51,-12.76 18.76,-28.12 18.76,-46.13 0,-18.51 -6.2,-34.24 -18.58,-47.24 -12.38,-12.94 -27.49,-19.44 -45.32,-19.44 -17.59,0 -32.57,6.44 -44.95,19.25 -12.39,12.88 -18.57,28.55 -18.57,47.06 0,18.02 6.25,33.43 18.76,46.31 12.51,12.82 27.43,19.26 44.77,19.26z"/>
    <path id="16" class="fil6" d="M5138.3 1367.43l0 114.05 -34.55 0 0 -100.81c0,-17.83 -2.6,-30.77 -7.8,-38.95 -7.99,-12.57 -20.93,-18.89 -38.82,-18.89 -15.17,0 -26.99,5.14 -35.42,15.36 -8.48,10.28 -12.69,24.46 -12.69,42.48l0 100.81 -35.29 0 0 -185.76 32.32 0 0 19.69c12.38,-16.35 30.71,-24.52 54.98,-24.52 23.03,0 41.67,7.06 55.91,21.18 14.24,14.12 21.36,32.57 21.36,55.36z"/>
    <path id="17" class="fil6" d="M5318.49 1420.19l38.64 0c-6.94,20.31 -18.57,36.41 -34.93,48.29 -16.35,11.89 -35.17,17.83 -56.47,17.83 -26.75,0 -49.23,-9.41 -67.43,-28.24 -18.21,-18.82 -27.3,-42.1 -27.3,-69.84 0,-27.25 9.16,-50.28 27.49,-69.1 18.33,-18.82 40.99,-28.24 67.99,-28.24 21.3,0 40.56,6.38 57.77,19.13 17.21,12.76 28.17,28.67 32.88,47.74l-38.64 0c-12.88,-23.28 -30.22,-34.93 -52.01,-34.93 -17.59,0 -32.14,6.2 -43.66,18.64 -11.52,12.45 -17.28,28.05 -17.28,46.75 0,17.95 5.89,33.49 17.65,46.56 11.76,13.06 25.82,19.56 42.17,19.56 11.14,0 21.55,-3.03 31.21,-9.16 9.66,-6.13 16.97,-14.49 21.92,-25.02z"/>
    <path id="18" class="fil6" d="M5526.91 1423.16l34.92 0c-6.93,19.32 -18.45,34.67 -34.55,46.07 -16.1,11.39 -34.18,17.09 -54.24,17.09 -26.01,0 -48.3,-9.6 -66.87,-28.79 -18.57,-19.2 -27.86,-42.29 -27.86,-69.29 0,-27.25 9.29,-50.53 27.86,-69.85 18.57,-19.32 41.12,-28.98 67.62,-28.98 25.76,0 47.86,9.47 66.32,28.42 18.45,18.95 27.68,41.67 27.68,68.17 0,3.96 -0.37,9.91 -1.11,17.83l-153.44 0c3.71,15.23 11.09,27.49 22.1,36.71 11.02,9.23 24.09,13.81 39.2,13.81 22.79,0 40.25,-10.4 52.39,-31.21zm-99.2 -81.73c-7.43,8.42 -12.26,20.3 -14.49,35.66l120 0c-0.75,-15.36 -7,-28.48 -18.76,-39.38 -11.76,-10.9 -25.45,-16.35 -41.05,-16.35 -18.57,0 -33.81,6.68 -45.7,20.06z"/>
    <path id="19" class="fil6" d="M2186.25 1913.56l-73.93 0 0 -247.8 64.27 0c24.28,0 43.22,6.32 56.85,18.95 13.62,12.63 20.43,29.22 20.43,49.78 0,18.08 -7.43,33.68 -22.29,46.81 24.52,14.62 36.78,34.8 36.78,60.56 0,22.54 -8.17,40.62 -24.52,54.24 -13.87,11.64 -33.07,17.46 -57.59,17.46zm-37.9 -111.46l0 78.39 39.39 0c13.13,0 23.84,-3.59 32.13,-10.78 8.3,-7.18 12.45,-16.59 12.45,-28.24 0,-12.39 -4.28,-22.04 -12.82,-28.98 -8.55,-6.94 -20.62,-10.4 -36.22,-10.4l-34.93 0zm0 -102.91l0 69.85 29.35 0c26.75,0 40.13,-11.52 40.13,-34.55 0,-23.53 -13.99,-35.29 -41.98,-35.29l-27.49 0z"/>
    <path id="20" class="fil6" d="M2441.48 1855.23l34.92 0c-6.93,19.32 -18.45,34.67 -34.55,46.07 -16.1,11.39 -34.18,17.09 -54.24,17.09 -26.01,0 -48.3,-9.6 -66.87,-28.79 -18.57,-19.2 -27.86,-42.29 -27.86,-69.29 0,-27.25 9.29,-50.53 27.86,-69.85 18.57,-19.32 41.12,-28.98 67.62,-28.98 25.76,0 47.86,9.47 66.32,28.42 18.45,18.95 27.68,41.67 27.68,68.17 0,3.96 -0.37,9.91 -1.11,17.83l-153.44 0c3.71,15.23 11.09,27.49 22.1,36.71 11.02,9.23 24.09,13.81 39.2,13.81 22.79,0 40.25,-10.4 52.39,-31.21zm-99.2 -81.73c-7.43,8.42 -12.26,20.3 -14.49,35.66l120 0c-0.75,-15.36 -7,-28.48 -18.76,-39.38 -11.76,-10.9 -25.45,-16.35 -41.05,-16.35 -18.57,0 -33.81,6.68 -45.7,20.06z"/>
    <polygon id="21" class="fil6" points="2587.12,1759.75 2556.28,1759.75 2556.28,1913.56 2521.73,1913.56 2521.73,1759.75 2496.46,1759.75 2496.46,1727.8 2521.73,1727.8 2521.73,1665.76 2556.28,1665.76 2556.28,1727.8 2587.12,1727.8 "/>
    <polygon id="22" class="fil6" points="2685.56,1759.75 2654.73,1759.75 2654.73,1913.56 2620.18,1913.56 2620.18,1759.75 2594.91,1759.75 2594.91,1727.8 2620.18,1727.8 2620.18,1665.76 2654.73,1665.76 2654.73,1727.8 2685.56,1727.8 "/>
    <path id="23" class="fil6" d="M2847.54 1855.23l34.92 0c-6.93,19.32 -18.45,34.67 -34.55,46.07 -16.1,11.39 -34.18,17.09 -54.24,17.09 -26.01,0 -48.3,-9.6 -66.87,-28.79 -18.57,-19.2 -27.86,-42.29 -27.86,-69.29 0,-27.25 9.29,-50.53 27.86,-69.85 18.57,-19.32 41.12,-28.98 67.62,-28.98 25.76,0 47.86,9.47 66.32,28.42 18.45,18.95 27.68,41.67 27.68,68.17 0,3.96 -0.37,9.91 -1.11,17.83l-153.44 0c3.71,15.23 11.09,27.49 22.1,36.71 11.02,9.23 24.09,13.81 39.2,13.81 22.79,0 40.25,-10.4 52.39,-31.21zm-99.2 -81.73c-7.43,8.42 -12.26,20.3 -14.49,35.66l120 0c-0.75,-15.36 -7,-28.48 -18.76,-39.38 -11.76,-10.9 -25.45,-16.35 -41.05,-16.35 -18.57,0 -33.81,6.68 -45.7,20.06z"/>
    <path id="24" class="fil6" d="M2957.14 1812.13l0 101.43 -34.55 0 0 -185.76 32.32 0 0 16.71c11.14,-13.62 27.12,-20.8 47.92,-21.55l0 35.67c-30.46,2.48 -45.7,20.31 -45.7,53.49z"/>
    <path id="25" class="fil6" d="M3307.85 1852.63l44.21 0c-11.64,20.8 -27.37,36.97 -47.18,48.48 -19.81,11.52 -41.61,17.28 -65.39,17.28 -34.67,0 -64.52,-12.69 -89.54,-38.08 -25.01,-25.39 -37.52,-55.79 -37.52,-91.2 0,-35.67 12.39,-65.95 37.16,-90.84 24.76,-24.89 54.86,-37.33 90.28,-37.33 50.28,0 88.29,22.66 114.05,67.98l-43.47 0c-20.06,-23.28 -43.35,-34.92 -69.85,-34.92 -25.51,0 -47.18,9.29 -65.01,27.86 -17.83,18.57 -26.75,40.99 -26.75,67.25 0,26.01 8.98,48.54 26.94,67.62 17.95,19.07 39.32,28.6 64.09,28.6 26.5,0 49.16,-10.9 67.98,-32.69z"/>
    <path id="26" class="fil6" d="M3385.13 1727.8l34.55 0 0 185.76 -34.55 0 0 -185.76zm0 -62.05l34.55 0 0 40.87 -34.55 0 0 -40.87z"/>
    <polygon id="27" class="fil6" points="3534.85,1759.75 3504.01,1759.75 3504.01,1913.56 3469.47,1913.56 3469.47,1759.75 3444.2,1759.75 3444.2,1727.8 3469.47,1727.8 3469.47,1665.76 3504.01,1665.76 3504.01,1727.8 3534.85,1727.8 "/>
    <path id="28" class="fil6" d="M3562.71 1727.8l34.55 0 0 185.76 -34.55 0 0 -185.76zm0 -62.05l34.55 0 0 40.87 -34.55 0 0 -40.87z"/>
    <polygon id="29" class="fil6" points="3635.53,1759.75 3635.53,1727.8 3754.41,1727.8 3754.41,1762.66 3670.45,1881.61 3761.1,1881.61 3761.1,1913.56 3626.99,1913.56 3626.99,1886.87 3715.78,1759.75 "/>
    <path id="30" class="fil6" d="M3926.8 1855.23l34.92 0c-6.93,19.32 -18.45,34.67 -34.55,46.07 -16.1,11.39 -34.18,17.09 -54.24,17.09 -26.01,0 -48.3,-9.6 -66.87,-28.79 -18.57,-19.2 -27.86,-42.29 -27.86,-69.29 0,-27.25 9.29,-50.53 27.86,-69.85 18.57,-19.32 41.12,-28.98 67.62,-28.98 25.76,0 47.86,9.47 66.32,28.42 18.45,18.95 27.68,41.67 27.68,68.17 0,3.96 -0.37,9.91 -1.11,17.83l-153.44 0c3.71,15.23 11.09,27.49 22.1,36.71 11.02,9.23 24.09,13.81 39.2,13.81 22.79,0 40.25,-10.4 52.39,-31.21zm-99.2 -81.73c-7.43,8.42 -12.26,20.3 -14.49,35.66l120 0c-0.75,-15.36 -7,-28.48 -18.76,-39.38 -11.76,-10.9 -25.45,-16.35 -41.05,-16.35 -18.57,0 -33.81,6.68 -45.7,20.06z"/>
    <path id="31" class="fil6" d="M4166.42 1799.51l0 114.05 -34.55 0 0 -100.81c0,-17.83 -2.6,-30.77 -7.8,-38.95 -7.99,-12.57 -20.93,-18.89 -38.82,-18.89 -15.17,0 -26.99,5.14 -35.42,15.36 -8.48,10.28 -12.69,24.46 -12.69,42.48l0 100.81 -35.29 0 0 -185.76 32.32 0 0 19.69c12.38,-16.35 30.71,-24.52 54.98,-24.52 23.03,0 41.67,7.06 55.91,21.18 14.24,14.12 21.36,32.57 21.36,55.36z"/>
    <path id="32" class="fil6" d="M4434.29 1730.03l-36.78 0c-0.74,-10.9 -4.21,-19.63 -10.4,-26.19 -6.19,-6.56 -13.87,-9.84 -23.03,-9.84 -8.91,0 -16.72,3.41 -23.4,10.22 -6.69,6.81 -10.03,14.8 -10.03,23.96 0,9.66 2.85,17.03 8.55,22.1 5.7,5.08 16.41,9.84 32.14,14.3 15.72,4.46 27.24,8.79 34.55,13.01 7.3,4.21 13.8,10.4 19.5,18.57 8.67,12.39 13.01,26.75 13.01,43.09 0,22.54 -7.3,41.36 -21.92,56.47 -14.62,15.11 -32.82,22.66 -54.62,22.66 -22.29,0 -40.62,-7.3 -54.98,-21.92 -14.36,-14.61 -21.79,-33.31 -22.29,-56.1l35.66 0c2.98,29.97 16.97,44.95 41.98,44.95 11.39,0 20.93,-3.96 28.61,-11.89 7.68,-7.93 11.52,-17.71 11.52,-29.35 0,-17.59 -10.28,-29.85 -30.84,-36.78l-8.91 -2.97 -10.4 -3.34c-14.12,-4.46 -23.28,-7.8 -27.49,-10.03 -4.21,-2.23 -8.67,-6.07 -13.37,-11.52 -11.14,-12.39 -16.72,-27.62 -16.72,-45.7 0,-21.05 6.75,-38.45 20.25,-52.2 13.5,-13.74 30.53,-20.62 51.09,-20.62 19.32,0 35.29,6.37 47.92,19.13 12.63,12.75 19.44,29.41 20.44,49.97z"/>
    <path id="33" class="fil6" d="M4611.5 1855.23l34.92 0c-6.93,19.32 -18.45,34.67 -34.55,46.07 -16.1,11.39 -34.18,17.09 -54.24,17.09 -26.01,0 -48.3,-9.6 -66.87,-28.79 -18.57,-19.2 -27.86,-42.29 -27.86,-69.29 0,-27.25 9.29,-50.53 27.86,-69.85 18.57,-19.32 41.12,-28.98 67.62,-28.98 25.76,0 47.86,9.47 66.32,28.42 18.45,18.95 27.68,41.67 27.68,68.17 0,3.96 -0.37,9.91 -1.11,17.83l-153.44 0c3.71,15.23 11.09,27.49 22.1,36.71 11.02,9.23 24.09,13.81 39.2,13.81 22.79,0 40.25,-10.4 52.39,-31.21zm-99.2 -81.73c-7.43,8.42 -12.26,20.3 -14.49,35.66l120 0c-0.75,-15.36 -7,-28.48 -18.76,-39.38 -11.76,-10.9 -25.45,-16.35 -41.05,-16.35 -18.57,0 -33.81,6.68 -45.7,20.06z"/>
    <path id="34" class="fil6" d="M4721.1 1812.13l0 101.43 -34.55 0 0 -185.76 32.32 0 0 16.71c11.14,-13.62 27.12,-20.8 47.92,-21.55l0 35.67c-30.46,2.48 -45.7,20.31 -45.7,53.49z"/>
    <polygon id="35" class="fil6" points="4904.26,1727.8 4941.41,1727.8 4868.59,1913.56 4844.07,1913.56 4770.51,1727.8 4807.66,1727.8 4856.33,1860.81 "/>
    <path id="36" class="fil6" d="M4962.96 1727.8l34.55 0 0 185.76 -34.55 0 0 -185.76zm0 -62.05l34.55 0 0 40.87 -34.55 0 0 -40.87z"/>
    <path id="37" class="fil6" d="M5179.18 1852.26l38.64 0c-6.94,20.31 -18.57,36.41 -34.93,48.29 -16.35,11.89 -35.17,17.83 -56.47,17.83 -26.75,0 -49.23,-9.41 -67.43,-28.24 -18.21,-18.82 -27.3,-42.1 -27.3,-69.84 0,-27.25 9.16,-50.28 27.49,-69.1 18.33,-18.82 40.99,-28.24 67.99,-28.24 21.3,0 40.56,6.38 57.77,19.13 17.21,12.76 28.17,28.67 32.88,47.74l-38.64 0c-12.88,-23.28 -30.22,-34.93 -52.01,-34.93 -17.59,0 -32.14,6.2 -43.66,18.64 -11.52,12.45 -17.28,28.05 -17.28,46.75 0,17.95 5.89,33.49 17.65,46.56 11.76,13.06 25.82,19.56 42.17,19.56 11.14,0 21.55,-3.03 31.21,-9.16 9.66,-6.13 16.97,-14.49 21.92,-25.02z"/>
    <path id="38" class="fil6" d="M5387.6 1855.23l34.92 0c-6.93,19.32 -18.45,34.67 -34.55,46.07 -16.1,11.39 -34.18,17.09 -54.24,17.09 -26.01,0 -48.3,-9.6 -66.87,-28.79 -18.57,-19.2 -27.86,-42.29 -27.86,-69.29 0,-27.25 9.29,-50.53 27.86,-69.85 18.57,-19.32 41.12,-28.98 67.62,-28.98 25.76,0 47.86,9.47 66.32,28.42 18.45,18.95 27.68,41.67 27.68,68.17 0,3.96 -0.37,9.91 -1.11,17.83l-153.44 0c3.71,15.23 11.09,27.49 22.1,36.71 11.02,9.23 24.09,13.81 39.2,13.81 22.79,0 40.25,-10.4 52.39,-31.21zm-99.2 -81.73c-7.43,8.42 -12.26,20.3 -14.49,35.66l120 0c-0.75,-15.36 -7,-28.48 -18.76,-39.38 -11.76,-10.9 -25.45,-16.35 -41.05,-16.35 -18.57,0 -33.81,6.68 -45.7,20.06z"/>
    <path id="39" class="fil6" d="M5515.4 1722.97c16.35,0 29.85,5.08 40.49,15.24 10.65,10.15 16.1,23.16 16.35,39.01l-34.74 0c-2.23,-14.86 -9.91,-22.29 -23.09,-22.29 -6.75,0 -12.26,1.92 -16.66,5.76 -4.33,3.84 -6.5,8.55 -6.5,14.24 0,6.2 1.92,10.84 5.76,13.94 3.9,3.09 11.64,6.37 23.35,9.78 19.63,5.94 33.87,14.12 42.72,24.45 8.85,10.4 13.25,22.42 13.25,35.98 0,16.35 -6.32,30.28 -18.94,41.92 -12.63,11.58 -27.74,17.4 -45.33,17.4 -18.82,0 -33.99,-5.94 -45.51,-17.83 -11.52,-11.89 -17.52,-27.74 -18.02,-47.55l34.93 0c1.48,22.29 11.64,33.44 30.46,33.44 8.17,0 14.86,-2.23 20.06,-6.69 5.2,-4.45 7.8,-10.21 7.8,-17.4 0,-7.18 -2.29,-12.82 -6.87,-16.9 -4.59,-4.03 -13.19,-8.17 -25.82,-12.39 -19.32,-6.19 -32.88,-13.68 -40.68,-22.41 -7.8,-8.79 -11.71,-18.89 -11.71,-30.22 0,-16.59 5.57,-30.28 16.72,-41.17 11.15,-10.84 25.14,-16.29 41.98,-16.29z"/>
    <line class="fil7 str0" x1="1912.48" y1="223.28" x2="1912.48" y2= "1968.6" />
    <line class="fil7 str0" x1="5611.07" y1="1095.94" x2="1912.47" y2= "1095.94" />
   </g>
   <rect class="fil7" width="5877.18" height="2220.1"/>
  </g>
 </g>
</svg>
