<?xml version="1.0" encoding="UTF-8"?>
<!DOCTYPE svg PUBLIC "-//W3C//DTD SVG 1.1//EN" "http://www.w3.org/Graphics/SVG/1.1/DTD/svg11.dtd">
<!-- Creator: CorelDRAW 2020 (64-Bit Evaluation Version) -->
<svg xmlns="http://www.w3.org/2000/svg" xml:space="preserve" width="9.4082mm" height="8.6155mm" version="1.1" style="shape-rendering:geometricPrecision; text-rendering:geometricPrecision; image-rendering:optimizeQuality; fill-rule:evenodd; clip-rule:evenodd"
viewBox="0 0 83.75 76.69"
 xmlns:xlink="http://www.w3.org/1999/xlink"
 xmlns:xodm="http://www.corel.com/coreldraw/odm/2003">
 <defs>
  <style type="text/css">
   <![CDATA[
    .fil1 {fill:#FEFEFE}
    .fil0 {fill:url(#id0)}
   ]]>
  </style>
  <linearGradient id="id0" gradientUnits="userSpaceOnUse" x1="47.12" y1="5.92" x2="47.12" y2="75.55">
   <stop offset="0" style="stop-opacity:1; stop-color:#F4C711"/>
   <stop offset="1" style="stop-opacity:1; stop-color:#F5971E"/>
  </linearGradient>
 </defs>
 <g id="Layer_x0020_1">
  <metadata id="CorelCorpID_0Corel-Layer"/>
  <path class="fil0" d="M44.97 0l-0.54 0c-0.24,0.4 -0.63,0.7 -0.93,1.09 -1.03,1.33 -1.94,0.33 -3.3,0.75 -0.32,0.1 -1.13,0.45 -1.38,0.64 -0.15,0.82 -0.21,1.81 -0.28,2.65 -0.08,0.86 -0.53,1.29 -0.98,1.97 -0.78,1.18 -1.56,2.3 -2.39,3.49 -0.51,0.73 -0.55,1.18 -1.43,1.52 -0.73,0.28 -1.39,0.53 -2.12,0.83 -1.81,0.73 -1.64,0.32 -2.67,1.74 -0.63,0.86 -1.21,1.62 -1.68,2.64 -0.3,0.64 -0.48,1.5 -1.13,1.81 -0.34,0.17 -0.67,0.31 -0.99,0.48 -0.42,0.22 -0.43,0.36 -0.64,0.84 -0.29,0.66 -1,2.35 -1.54,2.78 -0.3,0.24 -3.49,0.38 -4,0.43 -2.88,0.26 -3.23,0.72 -4.91,0.94 -0.2,-0.4 -0.71,-0.69 -1.03,-0.98 -0.36,-0.34 -0.37,-0.78 -0.51,-1.42 -0.21,-0.92 -0.01,-0.77 -0.82,-1.11 -1.57,-0.66 -1.19,-0.44 -3.85,1.01 -0.74,0.4 -0.55,0.2 -0.99,0.94l-1.43 2.44c-0.34,0.61 -0.31,0.69 -0.86,1.07 -0.75,0.52 -1.54,1.07 -2.29,1.57 -1.18,0.78 -1.13,0.9 -1.74,2.13 -0.73,1.46 -0.49,1.74 -0.5,3.37 0.41,0.32 0.74,0.6 1.18,0.99 1.77,1.57 1.79,0.76 4.72,1.62 0.05,0.63 0.02,1.41 0.02,2.06 0,0.87 0.17,1.22 -0.32,1.66 -1.25,1.11 -0.99,0.81 -0.42,2.71 0.48,1.58 0.44,1.84 1.37,2.77 0.8,0.79 2.57,0.21 3.43,0.22 0.05,0.72 0.12,1.43 0.17,2.15 0.08,1.09 -0.02,1 0.52,1.68 1.16,1.46 1.04,1.13 1.16,3.25 0.04,0.78 1.64,4.2 2.13,4.59 0.28,0.22 1.05,0.7 1.36,0.81 1,-0.77 0.58,-0.78 2.22,-0.78 1.11,0 2.12,-0.19 2.64,0.28 0.75,0.67 1.31,0.63 2.31,0.41 0.91,-0.21 0.8,0.36 1.77,0.32 1.17,-0.05 0.42,0.61 1.37,1.55l1.11 1.07c0.2,-0.27 0.46,-0.53 0.65,-0.79 0.97,0.15 1.51,0.75 1.97,1.22 0.72,0.72 0.69,1.09 2.25,0.87 0.38,-0.87 -0.1,-1.37 0.92,-1.45 0.27,0.71 0.47,0.83 0.84,1.28 -0.31,0.51 -0.69,0.86 -0.97,1.38 0.19,0.41 0.43,0.67 0.61,1.07 0.18,0.39 0.17,0.83 0.33,1.22 0.67,0 1.31,-0.44 2.01,-0.17 0.13,0.55 -0.11,0.8 -0.33,1.23 -0.25,0.5 -0.12,0.5 0.13,1 0.28,0.58 0.26,0.5 0.71,0.86 0.46,0.37 0.18,0.6 0.42,1.09l1.05 0.22c0.27,1.49 0.18,0.75 -0.2,1.86 0.45,0.4 0.88,0.66 1.6,0.77 1.5,0.24 0.66,0.17 1.35,0.96 0.32,0.37 3.59,3.04 3.88,3.11 0.64,0.15 2.85,-0.77 3.4,-1.13 0.65,-0.43 0.7,-0.58 0.55,-1.62 -0.42,-0.17 -0.86,-0.28 -1.23,-0.44l-0.01 -0.64c0.43,-0.35 1.85,-1 2.47,-1.32 0.66,-0.34 0.6,-0.24 0.94,-0.91 0.31,-0.62 0.4,-0.6 0.45,-1.41 0.2,-3.26 0.78,-2.01 -0.14,-4.56 -0.28,-0.78 -0.1,-0.71 -0.89,-0.95 -0.47,-1.47 0.28,-1.17 0.25,-2.16 -0.02,-0.81 -0.35,-1.66 0.1,-2.27 0.24,0.28 0.39,0.36 0.63,0.73l1 -0.3 0.03 -1.58 -1.04 0.03c-0.09,-0.42 -0.22,-0.41 -0.04,-0.79 0.42,-0.06 0.57,0.39 1.01,0.36 0.19,-0.01 1,-0.31 1.13,-0.42 0.67,-0.55 0.12,-1.51 1.8,-1.24 0,1.59 0.26,0.72 0.8,1.61 -0.38,0.79 -0.67,0.01 -1.83,-0.24l0.29 2.02c0.76,0.3 1.94,0.28 2.8,0.28 2.74,-0 1.46,-0.39 2.48,-0.5 0.52,0.67 1.13,1.96 1.12,2.78 -0.85,0.17 -1,0.21 -1.52,0.71 0.13,0.8 0.52,1.12 0.33,1.96 -0.17,0.73 -0.2,1.35 -0.19,2.11 -1.69,0.13 -2.47,-0.37 -3,0.2 -0.25,0.27 -0.43,0.38 -0.6,0.6 0.22,0.26 1.95,1.74 2.3,1.88 0.78,-0.52 0.25,-0.77 1.58,-1.03 1.21,-0.24 0.88,-0.26 1.58,-0.9 0.56,-0.51 0.74,-0.58 1.22,-1.27 0.38,-0.55 0.57,-1.08 1.24,-1.25 0.25,0.34 0.03,0.22 0.38,0.38 0.23,-0.29 0.41,-0.39 0.66,-0.78 0.46,0.24 0.4,0.46 0.78,0.57 0.94,0.14 0.79,-0.28 1.38,0.53 0.53,-0.31 0.66,-0.78 1.42,-0.82 0.44,0.72 0.83,1.23 1.81,1.6l0.84 -0.94c-0.24,-0.54 -0.58,-1.15 -0.77,-1.66 -0.14,-0.38 0.16,-1.38 0.37,-1.75 1.04,0.31 0.19,0.44 1.49,0.13 0.24,-1.46 0.48,-1.14 -0.4,-2.15 -0.41,-0.47 -1.22,-1.14 -1.27,-1.76l0.49 -0.26 0.06 -1.29c0.41,-0.24 1.92,-0.62 2.5,-0.8 0.64,-0.2 1.82,-0.57 2.25,-0.95 -0.06,-0.56 -0.32,-1.05 -0.3,-1.65 0.04,-0.93 0.4,-1.1 -0.51,-1.42 -0.71,0.49 -0.53,0.93 -1.48,1.14 -3.51,0.77 -2.51,0.83 -5.19,-1.15 -0.77,-0.57 -0.88,-0.49 -1.07,-1.51 -0.17,-0.9 0.18,-1.08 0.54,-1.76 0.25,-0.47 0.16,-0.39 0.69,-0.6 1.85,-0.74 1,-0.53 2.12,-1.56l1.48 -1.1c0.5,-0.35 0.96,-0.7 1.44,-1.05 1.6,-1.15 1.3,-1.08 3.29,-1.68 1.88,-0.56 4.6,-2.55 6.54,-3.38l-0.05 -1.15 1.17 -0.06c0.03,-0.44 0.08,-0.96 -0.21,-1.25 -0.33,-0.32 -0.52,-0.38 -1.05,-0.19 -1.37,0.49 -0.04,0.61 -2.19,0.22 -1.2,-0.22 -1.38,-0.19 -2.46,0.2 -0.35,0.13 -0.81,0.22 -0.99,0.48 -0.27,0.37 -0.1,0.7 -0.64,0.58 -0.15,-0.27 -0.09,-0.49 -0.08,-0.87 0.77,-0.48 2.07,-0.93 2.85,-1.33 -0.22,-0.51 -0.92,-0.91 -1.28,-1.33 0.46,-1.1 0.53,-0.33 0.45,-2.02 -1.42,-1.23 -1.55,-0.36 -2.15,-2.27 -0.72,-2.27 -0.22,-2.41 -0.55,-3.76 -2.05,0.75 -0.81,-0.1 -2.75,0.05 -0.16,0.87 -0.04,1.18 -1.17,1.28 -0.32,-0.63 0.02,-0.52 0.22,-1.22 0.12,-0.4 0.17,-1.16 0.23,-1.61 0.05,-0.41 0.27,-1.28 0.13,-1.61 -0.12,-0.28 -0.69,-0.76 -0.96,-0.87 -0.9,0.44 -1.77,1.45 -2.69,1.81 -0.55,-0.61 -0.98,-0.88 -1.36,-1.44 -1,0.17 -0.95,0.29 -0.94,1.22 -0.45,-0.11 -0.78,-0.48 -1.23,-0.45l-0.27 2.96c-0.59,-0.51 -0.13,-0.34 -1.15,-0.4 -0.19,-0.09 0.08,-0.33 -1.18,-0.86 -0.02,-1.06 0.24,-0.21 0.47,-1.06 0.12,-0.44 0.11,-0.81 0.33,-1.15 0.77,-0.32 0.85,-0.02 1.11,-0.95 -1.03,-0.76 -2.12,-1.96 -3.07,-2.7l-1.22 -1.08c-0.93,-0.96 -1.18,-0.57 -1.33,-2.07 -0.27,-2.62 0.67,-1.42 -0.69,-3.54 -0.43,-0.66 -0.2,-1.33 -0.5,-1.81 -0.44,-0.39 -2.29,-0.1 -3,-0.66 -0.63,-0.49 -1.39,-1.2 -2.09,-1.54l-0.06 0.63 -1.56 0.04 -0.81 -1.04c0.17,-0.22 0.45,-0.37 0.5,-0.66 0.06,-0.32 -0.04,-0.81 0.03,-1.17 0.1,-0.49 0.63,-1.05 0.73,-1.56l-1.07 -0.04 -0.19 -1.71c-0.11,-0.09 -0.02,-0.05 -0.2,-0.11 -1.01,-0.39 -3.19,0.05 -4.81,-1.01l0.08 -2.3z"/>
  <g id="_3234346098432">
   <path class="fil1" d="M29.02 46.01c-0.84,0.83 -0.84,2.19 0,3.03 0.84,0.84 2.2,0.84 3.02,0l0.6 -0.6 2.52 2.52c0.43,0.43 1.12,0.43 1.55,0l3.75 -3.75c0.43,-0.43 0.43,-1.12 0,-1.55l-2.52 -2.52 4.49 -4.49c0.96,0.5 2.05,0.78 3.21,0.78 3.87,0 7.01,-3.14 7.01,-7.01 0,-3.87 -3.14,-7.01 -7.01,-7.01 -3.87,0 -7.01,3.14 -7.01,7.01 0,1.15 0.28,2.25 0.78,3.21l-10.4 10.39zm13.93 -13.6c0,-1.49 1.21,-2.7 2.7,-2.7 1.49,0 2.7,1.21 2.7,2.7 0,1.49 -1.21,2.7 -2.7,2.7 -1.49,0 -2.7,-1.21 -2.7,-2.7z"/>
  </g>
 </g>
</svg>
