<?xml version="1.0" encoding="utf-8"?>
<!-- Generator: Adobe Illustrator 17.0.0, SVG Export Plug-In . SVG Version: 6.00 Build 0)  -->
<!DOCTYPE svg PUBLIC "-//W3C//DTD SVG 1.1//EN" "http://www.w3.org/Graphics/SVG/1.1/DTD/svg11.dtd">
<svg version="1.1" id="Layer_1" xmlns="http://www.w3.org/2000/svg" xmlns:xlink="http://www.w3.org/1999/xlink" x="0px" y="0px"
	 width="127.333px" height="160.667px" viewBox="0 0 127.333 160.667" enable-background="new 0 0 127.333 160.667"
	 xml:space="preserve">
<g>
	<linearGradient id="SVGID_1_" gradientUnits="userSpaceOnUse" x1="46.3969" y1="87.3235" x2="71.1059" y2="102.7693">
		<stop  offset="0" style="stop-color:#50972A"/>
		<stop  offset="1" style="stop-color:#215618"/>
	</linearGradient>
	<path fill-rule="evenodd" clip-rule="evenodd" fill="url(#SVGID_1_)" d="M70.628,103.669c-14.575,0.519-16.866,1.228-22.248-2.846
		c-7.835-5.93-8.288-21.5-10.386-29.483c3.19,15.139,17.329,10.609,26.467,15.04C68.695,88.434,69.771,89.662,70.628,103.669z">
<animateTransform  id="abc"
attributeName="transform"
attributeType="XML"
type="translate"
dur="2s"
values="-300,0;0,0;"
repeatCount="1"/>
</path>
	<linearGradient id="SVGID_2_" gradientUnits="userSpaceOnUse" x1="89.0401" y1="117.8874" x2="64.331" y2="133.3332">
		<stop  offset="0" style="stop-color:#50972A"/>
		<stop  offset="1" style="stop-color:#215618"/>
	</linearGradient>
	<path fill-rule="evenodd" clip-rule="evenodd" fill="url(#SVGID_2_)" d="M64.847,134.294c14.575,0.519,16.866,1.228,22.248-2.846
		c7.835-5.93,9.32-21.413,10.387-29.483c-2.713,15.758-17.284,10.4-26.421,14.831C66.827,118.85,65.704,120.287,64.847,134.294z">
<animateTransform  id="abc"
attributeName="transform"
attributeType="XML"
type="translate"
dur="2s"
values="300,0;0,0;"
repeatCount="1"/>
</path>

	<linearGradient id="SVGID_3_" gradientUnits="userSpaceOnUse" x1="92.6677" y1="97.1053" x2="65.8454" y2="113.3739">
		<stop  offset="0" style="stop-color:#50972A"/>
		<stop  offset="1" style="stop-color:#215618"/>
	</linearGradient>
	<path fill-rule="evenodd" clip-rule="evenodd" fill="url(#SVGID_3_)" d="M67.806,116.756c4.096-5.862,17.695-2.783,23.074-6.854
		c7.832-5.928,9.505-21.009,11.604-28.992c-3.19,15.139-18.232,11.383-27.815,15.462C70.342,98.214,68.663,102.748,67.806,116.756z"
		>
<animateTransform  id="abc"
attributeName="transform"
attributeType="XML"
type="translate"
dur="2s"
values="300,0;0,0;"
repeatCount="1"/>
</path>
	<linearGradient id="SVGID_4_" gradientUnits="userSpaceOnUse" x1="95.9795" y1="77.5071" x2="70.0217" y2="93.1019">
		<stop  offset="0" style="stop-color:#50972A"/>
		<stop  offset="1" style="stop-color:#215618"/>
	</linearGradient>
	<path fill-rule="evenodd" clip-rule="evenodd" fill="url(#SVGID_4_)" d="M71.863,96.321c4.096-5.861,17.694-2.783,23.074-6.854
		c7.833-5.928,8.221-20.013,10.32-27.996c-3.19,15.139-17.331,10.61-26.468,15.04C74.557,78.563,72.72,82.313,71.863,96.321z">
<animateTransform  id="abc"
attributeName="transform"
attributeType="XML"
type="translate"
dur="2s"

values="300,0;0,0;"
repeatCount="1"/>
</path>
	<linearGradient id="SVGID_5_" gradientUnits="userSpaceOnUse" x1="99.4959" y1="57.4928" x2="73.5343" y2="73.0899">
		<stop  offset="0" style="stop-color:#50972A"/>
		<stop  offset="1" style="stop-color:#215618"/>
	</linearGradient>
	<path fill-rule="evenodd" clip-rule="evenodd" fill="url(#SVGID_5_)" d="M75.379,76.306c4.096-5.861,17.694-2.782,23.074-6.854
		c7.833-5.928,8.221-20.013,10.32-27.996c-3.19,15.139-17.331,10.609-26.467,15.04C78.073,58.549,76.236,62.299,75.379,76.306z">
<animateTransform  id="abc"
attributeName="transform"
attributeType="XML"
type="translate"
dur="2s"

values="300,0;0,0;"
repeatCount="1"/>
</path>
	<linearGradient id="SVGID_6_" gradientUnits="userSpaceOnUse" x1="43.8379" y1="66.9504" x2="70.3405" y2="82.6361">
		<stop  offset="0" style="stop-color:#50972A"/>
		<stop  offset="1" style="stop-color:#215618"/>
	</linearGradient>
	<path fill-rule="evenodd" clip-rule="evenodd" fill="url(#SVGID_6_)" d="M68.139,86.505c-4.096-5.861-18.124-3.762-23.504-7.834
		c-7.833-5.928-8.221-20.013-10.32-27.996c3.19,15.139,17.331,10.61,26.468,15.04C65.015,67.768,67.282,72.498,68.139,86.505z">
<animateTransform  id="abc"
attributeName="transform"
attributeType="XML"
type="translate"
dur="2s"

values="-300,0;0,0;"
repeatCount="1"/>
</path>
	<linearGradient id="SVGID_7_" gradientUnits="userSpaceOnUse" x1="39.4879" y1="46.7862" x2="66.1286" y2="62.5142">
		<stop  offset="0" style="stop-color:#50972A"/>
		<stop  offset="1" style="stop-color:#215618"/>
	</linearGradient>
	<path fill-rule="evenodd" clip-rule="evenodd" fill="url(#SVGID_7_)" d="M63.854,66.517c-4.096-5.861-18.256-3.993-23.636-8.065
		c-7.833-5.927-8.221-20.013-10.32-27.996c3.19,15.139,17.331,10.61,26.467,15.04C60.598,47.549,62.997,52.509,63.854,66.517z">
<animateTransform  id="abc"
attributeName="transform"
attributeType="XML"
type="translate"
dur="2s"
values="-300,0;0,0;"
repeatCount="1"/>
</path>
	<linearGradient id="SVGID_8_" gradientUnits="userSpaceOnUse" x1="35.8493" y1="25.4804" x2="62.2566" y2="40.3233">
		<stop  offset="0" style="stop-color:#50972A"/>
		<stop  offset="1" style="stop-color:#215618"/>
	</linearGradient>
	<path fill-rule="evenodd" clip-rule="evenodd" fill="url(#SVGID_8_)" d="M59.517,45.35c-4.096-5.861-17.351-3.745-22.73-7.816
		c-7.832-5.927-8.015-20.838-10.115-28.821c3.19,15.139,17.331,10.61,26.467,15.04C57.372,25.807,58.66,31.343,59.517,45.35z">
<animateTransform  id="abc"
attributeName="transform"
attributeType="XML"
type="translate"
dur="2s"
values="-300,0;0,0;"
repeatCount="1"/>
</path>
	<linearGradient id="SVGID_9_" gradientUnits="userSpaceOnUse" x1="71.4028" y1="12.9871" x2="70.9395" y2="41.9554">
		<stop  offset="0" style="stop-color:#468093"/>
		<stop  offset="1" style="stop-color:#EAE200"/>
	</linearGradient>
	<path fill-rule="evenodd" clip-rule="evenodd" fill="url(#SVGID_9_)" d="M89.446,41.353c1.506,8.724-8.322,18.588-18.588,18.588
		c-10.266,0-18.588-8.322-18.588-18.588c0-8.81,13.96-20.856,19.066-30.076C75.83,18.336,87.941,32.629,89.446,41.353z">
<animateTransform  id="abc"
attributeName="transform"
attributeType="XML"
type="translate"
dur="1s"
values="0,-300;0,0"
repeatCount="indefinite"/>
</path>
	<path fill-rule="evenodd" clip-rule="evenodd" d="M49.261,110.818h-0.103l-0.011,0.103h-4.45l-0.331,3.007l0.537-0.288
		c0.209-0.124,0.422-0.213,0.637-0.268l0.564-0.103c0.354,0,0.644,0.076,0.875,0.227c0.532,0.247,0.884,0.762,1.055,1.545
		c0.023,0.165,0.039,0.329,0.049,0.494c0.009,0.165,0.003,0.343-0.018,0.535c-0.065,0.59-0.204,1.105-0.417,1.545l-0.334,0.598
		c-0.46,0.81-0.95,1.332-1.47,1.566l-0.891-1.071c0.192,0,0.371-0.062,0.536-0.185l0.684-0.783c0.111-0.137,0.229-0.305,0.354-0.504
		c0.125-0.199,0.249-0.422,0.372-0.67c0.196-0.412,0.313-0.783,0.349-1.112l-0.019-0.391c-0.064-0.288-0.173-0.456-0.325-0.505
		s-0.344-0.086-0.575-0.113c-0.138,0-0.327,0.034-0.567,0.103c-0.241,0.069-0.519,0.22-0.833,0.45l-0.336,0.247l-0.403,0.289
		l-0.586,5.314l-1.194-0.944l0.368-3.337l-0.286,0.165l-0.325,0.144l-0.819,0.33l-0.586,0.083c-0.275,0-0.602-0.083-0.982-0.247
		c-0.522-0.251-0.921-0.738-1.198-1.473c-0.07-0.357-0.088-0.697-0.053-1.013c0.053-0.484,0.245-0.91,0.574-1.284l0.39-0.364
		c0.472-0.295,0.912-0.484,1.318-0.563c0.127-0.027,0.3-0.041,0.52-0.041h0.33l0.405,0.062l0.452,1.318h-0.412l-0.302-0.062h-0.227
		c-0.343,0-0.607,0.021-0.79,0.062c-0.22,0-0.529,0.134-0.93,0.405c-0.087,0.041-0.18,0.134-0.278,0.278
		c-0.105,0.213-0.169,0.419-0.192,0.618c-0.053,0.484,0.068,0.817,0.364,1.002l0.357,0.127h0.494l0.611-0.124
		c0.183-0.041,0.536-0.193,1.059-0.453l0.199-0.124l0.465-0.289l0.463-4.202h-4.944l0.129-1.174h10.794L49.261,110.818z"/>
	<path fill-rule="evenodd" clip-rule="evenodd" d="M47.74,123.692l-0.178,0.124l-0.263,0.144l-0.325,0.144l-0.425,0.124
		l-0.824,0.185l-0.789,0.062c-0.179,0-0.357,0-0.536,0c-0.16-0.041-0.281-0.069-0.362-0.082c-0.8-0.22-1.325-0.632-1.574-1.236
		c-0.052-0.151-0.088-0.326-0.107-0.525c-0.019-0.199-0.015-0.422,0.012-0.669c0.039-0.357,0.157-0.673,0.352-0.948
		c0.204-0.357,0.581-0.659,1.13-0.907c0.546-0.22,1.142-0.329,1.787-0.329l1.052,1.112l-0.691-0.082l-0.851,0.062
		c-0.11,0-0.228,0.01-0.353,0.031c-0.126,0.021-0.284,0.086-0.475,0.196c-0.728,0.247-1.123,0.652-1.185,1.215l0.028,0.309
		c0.015,0.234,0.22,0.433,0.614,0.597c0.238,0.083,0.542,0.124,0.913,0.124c0.549,0,1.213-0.165,1.991-0.494l0.627-0.268
		l0.447,0.989l-0.087,0.041L47.74,123.692z"/>
	<path fill-rule="evenodd" clip-rule="evenodd" d="M47.987,123.692l-0.178,0.124l-0.263,0.144l-0.325,0.144l-0.425,0.124
		l-0.824,0.185l-0.79,0.062c-0.178,0-0.357,0-0.535,0c-0.16-0.041-0.281-0.069-0.362-0.082c-0.8-0.22-1.325-0.632-1.574-1.236
		c-0.052-0.151-0.088-0.326-0.107-0.525c-0.019-0.199-0.015-0.422,0.012-0.669c0.039-0.357,0.157-0.673,0.352-0.948
		c0.204-0.357,0.581-0.659,1.13-0.907c0.546-0.22,1.142-0.329,1.787-0.329l1.052,1.112l-0.691-0.082l-0.851,0.062
		c-0.11,0-0.228,0.01-0.353,0.031c-0.126,0.021-0.284,0.086-0.475,0.196c-0.728,0.247-1.123,0.652-1.185,1.215l0.028,0.309
		c0.015,0.234,0.22,0.433,0.614,0.597c0.238,0.083,0.542,0.124,0.913,0.124c0.549,0,1.213-0.165,1.991-0.494l0.627-0.268
		l0.447,0.989l-0.087,0.041L47.987,123.692z"/>
	<path fill-rule="evenodd" clip-rule="evenodd" d="M58.713,109.726l-0.508,0.309c-0.026-0.137-0.174-0.357-0.442-0.659
		c-0.872-0.934-1.892-1.648-3.06-2.142c-0.591-0.247-1.14-0.371-1.648-0.371c-0.275,0-0.529,0.038-0.764,0.113
		c-0.235,0.075-0.438,0.206-0.61,0.398c-0.359,0.271-0.566,0.656-0.62,1.147l0.033,0.264l0.204,0.388l0.204,0.388l0.083,0.185h1.751
		l-0.129,1.174h-1.483l-1.094,9.925l-1.193-0.947l0.989-8.978h-1.05l0.129-1.174h1.256l-0.176-0.268l-0.236-0.474l-0.209-0.536
		l-0.028-0.494c0.048-0.439,0.146-0.793,0.292-1.061c0.146-0.268,0.376-0.518,0.69-0.752c0.235-0.137,0.502-0.254,0.801-0.35
		c0.325-0.082,0.652-0.124,0.982-0.124c0.357,0,0.78,0.083,1.27,0.247c0.49,0.165,1.157,0.529,2.001,1.092
		c0.088,0.069,0.197,0.147,0.324,0.237c0.128,0.089,0.229,0.168,0.304,0.237l1.168,0.989l0.481,0.494l0.33,0.371L58.713,109.726z"/>
	<path fill-rule="evenodd" clip-rule="evenodd" d="M58.266,116.4h-0.103l0.052,0.093l-0.442,0.271l-0.52,0.23
		c-0.183,0.041-0.362,0.079-0.537,0.107c-0.175,0.028-0.344,0.041-0.509,0.041c-0.714,0-1.313-0.172-1.797-0.515
		c-0.229-0.168-0.459-0.381-0.691-0.642c-0.061-0.069-0.187-0.364-0.376-0.889l0.46-4.175h-0.886l0.129-1.174h4.882l-0.129,1.174
		h-2.534l3.148,3.955L58.266,116.4L58.266,116.4z M58.011,115.349l-0.09,0.062l-3.038-3.642l-0.424,3.849l0.114,0.082l0.194,0.103
		l0.14,0.041c0.096,0,0.17,0.017,0.221,0.048l0.362,0.076h0.453l2.037-0.721L58.011,115.349z"/>
	<polygon fill-rule="evenodd" clip-rule="evenodd" points="61.477,110.818 61.374,110.818 61.362,110.92 59.776,110.92 
		58.683,120.846 57.489,119.898 58.479,110.92 57.222,110.92 57.351,109.746 61.595,109.746 	"/>
	<path fill-rule="evenodd" clip-rule="evenodd" d="M35.348,126.421l-0.508,0.309c-0.026-0.137-0.173-0.357-0.442-0.659
		c-0.872-0.934-1.892-1.648-3.06-2.142c-0.591-0.247-1.14-0.371-1.648-0.371c-0.275,0-0.529,0.038-0.765,0.113
		c-0.235,0.075-0.438,0.206-0.61,0.398c-0.359,0.271-0.567,0.656-0.62,1.147l0.033,0.264l0.204,0.388l0.204,0.388l0.083,0.185h1.751
		l-0.129,1.174h-1.483l-1.094,9.925l-1.193-0.947l0.989-8.978h-1.051l0.129-1.174h1.256l-0.176-0.268l-0.236-0.474l-0.208-0.536
		l-0.028-0.494c0.049-0.439,0.146-0.793,0.292-1.061c0.146-0.268,0.376-0.518,0.69-0.752c0.235-0.137,0.502-0.254,0.801-0.35
		c0.325-0.083,0.652-0.124,0.982-0.124c0.357,0,0.78,0.083,1.27,0.247c0.49,0.165,1.157,0.529,2.002,1.092
		c0.088,0.069,0.197,0.147,0.324,0.237c0.128,0.089,0.229,0.168,0.304,0.237l1.168,0.989l0.481,0.494l0.33,0.371L35.348,126.421z"/>
	<path fill-rule="evenodd" clip-rule="evenodd" d="M38.07,127.512h-0.103l-0.011,0.103h-1.607l-1.094,9.925l-1.194-0.944
		l0.306-2.781l-0.11,0.062l-0.562,0.268l-0.836,0.33l-0.644,0.082c-0.797,0-1.451-0.319-1.968-0.954
		c-0.107-0.151-0.192-0.312-0.257-0.477l-0.244-0.56c-0.079-0.402-0.096-0.817-0.048-1.246c0.107-0.968,0.676-1.651,1.709-2.053
		c0.273-0.113,0.862-0.223,1.767-0.333h0.701l0.644,1.257l-0.696-0.041c-0.124,0-0.271,0-0.443,0c-0.172,0-0.357,0.034-0.557,0.103
		c-0.706,0.055-1.3,0.329-1.78,0.824c-0.064,0.083-0.122,0.172-0.174,0.268c-0.104,0.192-0.166,0.385-0.187,0.577
		c-0.049,0.439,0.033,0.817,0.242,1.133c0.06,0.082,0.192,0.185,0.399,0.309c0.236,0.069,0.48,0.103,0.727,0.103
		c0.271,0,0.534-0.045,0.78-0.134c0.25-0.089,0.561-0.264,0.93-0.525c0.281-0.179,0.473-0.337,0.584-0.474l0.213-0.247l0.493-4.47
		h-5.5l0.129-1.174h8.507L38.07,127.512z"/>
	<path fill-rule="evenodd" clip-rule="evenodd" d="M44.11,127.471h-0.103l-0.011,0.103h-1.257l-0.55-1.174h2.039L44.11,127.471
		L44.11,127.471z M44.646,132.332h-0.103l-0.011,0.103h-2.781l-0.132,1.195c-0.011,0.1-0.02,0.179-0.026,0.237l-0.108,0.172
		l-0.237,0.127h-0.202c-0.179,0-0.363-0.076-0.552-0.23l-0.377-0.312c-0.592-0.488-0.979-1.03-1.16-1.627l-0.057-0.419l0.059-0.162
		l0.142-0.165l0.175-0.093h0.165h1.236l0.116-1.051l-0.961-0.062c-0.398,0-0.823-0.192-1.276-0.577
		c-0.391-0.316-0.552-0.79-0.482-1.421c0.033-0.302,0.094-0.543,0.183-0.721c0.309-0.563,0.803-0.872,1.482-0.927h0.247
		c0.453,0,0.982,0.185,1.587,0.552c0.243,0.165,0.417,0.364,0.521,0.597c0.105,0.23,0.14,0.505,0.105,0.821l-0.307,2.788h2.884
		L44.646,132.332L44.646,132.332z M40.867,129.428l0.176-1.6l-0.041-0.189l-0.126-0.168l-0.231-0.144h-0.268
		c-0.412,0-0.745,0.089-0.998,0.271c-0.178,0.124-0.286,0.354-0.323,0.687c-0.018,0.165,0.02,0.316,0.116,0.446
		c0.096,0.13,0.233,0.254,0.413,0.364l0.531,0.23l0.547,0.082l0.146-0.021L40.867,129.428z"/>
	<polygon fill-rule="evenodd" clip-rule="evenodd" points="47.814,127.512 47.711,127.512 47.699,127.615 46.113,127.615 
		45.02,137.541 43.826,136.593 44.815,127.615 43.559,127.615 43.688,126.441 47.932,126.441 	"/>
	<polygon fill-rule="evenodd" clip-rule="evenodd" points="51.357,127.512 51.254,127.512 51.242,127.615 49.656,127.615 
		48.563,137.541 47.369,136.593 48.359,127.615 47.102,127.615 47.231,126.441 51.475,126.441 	"/>
	<path fill-rule="evenodd" clip-rule="evenodd" d="M59.72,127.512h-0.103l-0.011,0.103h-1.586l-1.094,9.925l-1.15-0.968l0.987-8.957
		h-2.287l-0.529,4.8c-0.012,0.11-0.043,0.206-0.093,0.288l-0.144,0.185l-0.242,0.144l-0.254,0.062c-0.148,0-0.352-0.076-0.614-0.227
		l-0.707-0.687c-0.531-0.662-0.777-1.178-0.737-1.535c0.026-0.237,0.197-0.354,0.513-0.354h1.215l0.295-2.678h-2.327l0.129-1.174
		h8.857L59.72,127.512z"/>
	<path fill-rule="evenodd" clip-rule="evenodd" d="M16.93,144.207h-0.103l-0.011,0.103h-2.843l0.063,0.742l-0.004,0.783
		c-0.151,1.373-0.835,2.661-2.054,3.869c0.089,0.316,0.237,0.652,0.445,1.009l0.644,1.071l0.795,1.009
		c0.145,0.178,0.471,0.46,0.978,0.845l-1.096,0.597l-0.607-0.848l-0.49-0.786l-0.555-0.948l-0.413-0.745l-0.788-1.445l-0.365-0.803
		l-0.223-0.597l-0.041-0.559c0.035-0.316,0.217-0.474,0.547-0.474h1.648l0.3-2.719H9.009l0.129-1.174h7.91L16.93,144.207z"/>
	<polygon fill-rule="evenodd" clip-rule="evenodd" points="20.184,144.207 20.081,144.207 20.07,144.31 18.484,144.31 
		17.39,154.236 16.197,153.288 17.186,144.31 15.93,144.31 16.059,143.136 20.302,143.136 	"/>
	<path fill-rule="evenodd" clip-rule="evenodd" d="M30.319,144.207h-0.103l-0.011,0.103h-1.586l-1.094,9.925l-1.156-0.91
		l0.662-6.008h-2.554l0.158,0.247l0.236,0.474l0.101,0.577l-0.002,0.577c-0.06,0.549-0.268,1.057-0.621,1.524
		c-0.192,0.247-0.418,0.433-0.679,0.556c-0.284,0.083-0.551,0.137-0.801,0.165c-0.508,0-0.96-0.199-1.355-0.597
		c-0.463-0.412-0.837-1.003-1.123-1.771l-0.349-0.948l-0.356-1.442l1.004-0.515c-0.03,0.275-0.04,0.522-0.03,0.742
		c0.01,0.22,0.041,0.412,0.091,0.577l0.159,0.803c0.113,0.59,0.355,1.071,0.727,1.442c0.322,0.316,0.71,0.474,1.163,0.474
		l0.316-0.062l0.327-0.165c0.21-0.161,0.375-0.47,0.493-0.92c0.042-0.381,0.015-0.731-0.081-1.044
		c-0.096-0.316-0.268-0.649-0.518-1.006l-0.314-0.326c-0.059-0.086-0.278-0.285-0.655-0.597l4.802-0.021l0.193-1.751h-7.683
		l0.129-1.174h10.629L30.319,144.207z"/>
	<path fill-rule="evenodd" clip-rule="evenodd" d="M36.743,148.348H36.64l0.053,0.082l-0.371,0.185l-0.343,0.124l-0.4,0.082
		l-0.332,0.021c-0.384,0-0.724-0.065-1.019-0.196c-0.295-0.13-0.543-0.34-0.744-0.629c-0.061,0.179-0.13,0.309-0.208,0.392
		c-0.284,0.453-0.604,0.81-0.963,1.075l-0.503,0.268l0.032,0.082l0.296,0.494l0.385,0.622l0.673,0.992l0.342,0.453l0.513,0.58
		c0.084,0.11,0.229,0.227,0.435,0.35l-1.053,0.58l-0.598-0.745l-0.442-0.662l-0.435-0.721l-1.036-2.001l-0.3-0.642l-0.339-0.848
		l-0.11-0.68l0.044-0.213l0.165-0.192l0.22-0.13l0.21-0.041h1.483l0.3-2.719h-2.74l0.129-1.174h6.2l-0.129,1.174h-2.122l-0.35,3.172
		l0.573,0.227l0.65,0.083c0.549,0,1.051-0.13,1.505-0.391c0.101-0.041,0.295-0.185,0.583-0.433L36.743,148.348z"/>
	<path fill-rule="evenodd" clip-rule="evenodd" d="M41.69,144.207h-0.103l-0.011,0.103h-0.556l-0.406-1.174h1.195L41.69,144.207
		L41.69,144.207z M42.105,150.346h-0.103l0.075,0.062c-0.277,0.271-0.588,0.508-0.936,0.707c-0.204,0.1-0.57,0.22-1.104,0.364
		h-0.759c-0.247,0-0.471-0.027-0.677-0.083c-0.204-0.055-0.421-0.165-0.647-0.33c-0.397-0.261-0.761-0.669-1.095-1.219
		c-0.105-0.165-0.22-0.374-0.339-0.632c-0.123-0.254-0.227-0.491-0.31-0.711c-0.136-0.384-0.175-0.841-0.118-1.363l0.725,0.062
		l0.84-0.083l0.58-0.185l-0.433-0.185c-0.262-0.113-0.542-0.312-0.84-0.601c-0.469-0.357-0.671-0.831-0.605-1.425
		c0.053-0.48,0.241-0.879,0.565-1.198l0.355-0.227l0.467-0.124l0.684-0.041c0.233,0,0.421,0.017,0.561,0.052
		c0.141,0.034,0.295,0.1,0.463,0.196c0.612,0.302,1.001,0.827,1.166,1.569c0.023,0.168,0.039,0.333,0.048,0.498
		c0.009,0.165,0.003,0.343-0.018,0.535c-0.076,0.69-0.578,1.318-1.505,1.881c-0.323,0.192-0.698,0.357-1.126,0.495l-0.901,0.144
		c0.076,0.306,0.163,0.518,0.259,0.642c0.222,0.481,0.584,0.807,1.088,0.972c0.197,0.082,0.44,0.124,0.728,0.124
		c0.563,0,1.168-0.193,1.815-0.577l0.727-0.433l0.295-0.247l0.267-0.371L42.105,150.346L42.105,150.346z M39.54,145.392
		c0.029-0.261,0.017-0.463-0.04-0.601c-0.02-0.196-0.085-0.347-0.201-0.457c-0.197-0.264-0.468-0.395-0.818-0.395l-0.348,0.072
		c-0.084,0.017-0.17,0.082-0.251,0.196l-0.195,0.244l-0.036,0.329c-0.033,0.299,0.029,0.611,0.188,0.937
		c0.075,0.192,0.214,0.395,0.41,0.615c0.124,0.147,0.326,0.244,0.614,0.285l0.255-0.226l0.219-0.271l0.117-0.312L39.54,145.392z"/>
	<polygon fill-rule="evenodd" clip-rule="evenodd" points="45.48,144.207 45.377,144.207 45.365,144.31 43.779,144.31 
		42.686,154.236 41.492,153.288 42.482,144.31 41.225,144.31 41.354,143.136 45.598,143.136 	"/>
	<polygon fill-rule="evenodd" clip-rule="evenodd" points="49.023,144.207 48.92,144.207 48.908,144.31 47.322,144.31 
		46.229,154.236 45.035,153.288 46.025,144.31 44.768,144.31 44.897,143.136 49.141,143.136 	"/>
	<path fill-rule="evenodd" clip-rule="evenodd" d="M57.675,144.207h-0.103l-0.011,0.103h-1.586l-1.094,9.925l-1.15-0.968
		l0.583-5.291h-2.904l-0.22,1.998c-0.029,0.261-0.167,0.391-0.414,0.391H50.61l-0.151-0.124l-0.639-0.931l-0.387-0.601l-0.203-0.395
		l-0.465-0.827l0.043-0.199c0.022-0.199,0.149-0.361,0.383-0.488h0.123h5.129l0.275-2.492h-6.2l0.129-1.174h9.146L57.675,144.207z"
		/>
	<path fill-rule="evenodd" clip-rule="evenodd" d="M61.611,137.022h6.925c2.463,0,4.368,0.613,5.715,1.838
		c1.347,1.225,2.2,2.827,2.554,4.802c0.34,1.897,0.171,3.646-0.507,5.256c-0.678,1.605-1.631,2.669-2.858,3.185
		c-1.228,0.513-2.438,0.771-3.636,0.771H60.92L61.611,137.022L61.611,137.022z M66.321,149.372h2.152
		c1.426,0,2.366-0.694,2.817-2.078c0.447-1.384,0.549-2.765,0.302-4.141c-0.146-0.816-0.462-1.458-0.951-1.93
		c-0.485-0.472-1.251-0.709-2.296-0.709h-1.658L66.321,149.372z"/>
	<path fill-rule="evenodd" clip-rule="evenodd" d="M87.648,136.753c2.569,0,4.574,0.646,6.012,1.941
		c1.434,1.292,2.324,2.882,2.663,4.772c0.13,0.727,0.166,1.561,0.113,2.491c-0.057,0.934-0.311,1.901-0.772,2.901
		c-0.458,0.997-1.131,1.845-2.023,2.539c-0.892,0.698-1.783,1.162-2.68,1.395c-0.893,0.232-1.866,0.35-2.914,0.35
		c-2.412,0-4.392-0.572-5.949-1.72c-1.556-1.144-2.517-2.753-2.887-4.82c-0.194-1.081-0.219-2.137-0.069-3.163
		c0.149-1.03,0.475-1.997,0.975-2.908c0.5-0.912,1.18-1.676,2.04-2.292c0.859-0.616,1.742-1.019,2.647-1.207
		C85.712,136.845,86.658,136.753,87.648,136.753L87.648,136.753z M87.721,149.534c1.005,0,1.794-0.358,2.369-1.07
		c0.571-0.716,0.924-1.613,1.052-2.698c0.127-1.085,0.149-1.86,0.066-2.322c-0.182-1.015-0.594-1.782-1.238-2.303
		c-0.639-0.517-1.389-0.779-2.237-0.779c-0.954,0-1.712,0.328-2.284,0.978c-0.57,0.653-0.928,1.524-1.079,2.609
		c-0.151,1.081-0.158,2.008-0.021,2.772c0.145,0.808,0.52,1.476,1.123,2.011C86.07,149.265,86.822,149.534,87.721,149.534z"/>
	<path fill-rule="evenodd" clip-rule="evenodd" d="M114.291,152.874h-5.11l-0.697-2.595h-5.499l-0.846,2.595h-5.617l6.685-15.852
		h5.558L114.291,152.874L114.291,152.874z M107.547,146.917l-1.55-5.776h-0.047l-1.863,5.776H107.547z"/>
</g>
</svg>
