<?xml version="1.0" encoding="UTF-8"?>
<!DOCTYPE svg PUBLIC "-//W3C//DTD SVG 1.1//EN" "http://www.w3.org/Graphics/SVG/1.1/DTD/svg11.dtd">
<!-- Creator: CorelDRAW 2020 (64-Bit Evaluation Version) -->
<svg xmlns="http://www.w3.org/2000/svg" xml:space="preserve" width="9.4082mm" height="8.6155mm" version="1.1" style="shape-rendering:geometricPrecision; text-rendering:geometricPrecision; image-rendering:optimizeQuality; fill-rule:evenodd; clip-rule:evenodd"
viewBox="0 0 69.33 63.49"
 xmlns:xlink="http://www.w3.org/1999/xlink"
 xmlns:xodm="http://www.corel.com/coreldraw/odm/2003">
 <defs>
  <style type="text/css">
   <![CDATA[
    .fil1 {fill:#FEFEFE;fill-rule:nonzero}
    .fil0 {fill:url(#id0)}
   ]]>
  </style>
  <linearGradient id="id0" gradientUnits="userSpaceOnUse" x1="39.01" y1="4.9" x2="39.01" y2="62.54">
   <stop offset="0" style="stop-opacity:1; stop-color:#F4C711"/>
   <stop offset="1" style="stop-opacity:1; stop-color:#F5971E"/>
  </linearGradient>
 </defs>
 <g id="Layer_x0020_1">
  <metadata id="CorelCorpID_0Corel-Layer"/>
  <g id="_3234357225088">
   <path class="fil0" d="M37.23 0l-0.44 0c-0.2,0.33 -0.52,0.58 -0.77,0.9 -0.86,1.1 -1.61,0.27 -2.73,0.62 -0.27,0.08 -0.93,0.37 -1.14,0.53 -0.12,0.68 -0.17,1.5 -0.23,2.19 -0.06,0.71 -0.44,1.06 -0.81,1.63 -0.65,0.98 -1.29,1.9 -1.98,2.89 -0.42,0.6 -0.46,0.98 -1.18,1.26 -0.6,0.24 -1.15,0.44 -1.75,0.68 -1.5,0.61 -1.36,0.27 -2.21,1.44 -0.52,0.71 -1.01,1.34 -1.39,2.18 -0.24,0.53 -0.4,1.24 -0.94,1.5 -0.28,0.14 -0.55,0.25 -0.82,0.39 -0.35,0.18 -0.35,0.3 -0.53,0.69 -0.24,0.55 -0.83,1.94 -1.28,2.3 -0.25,0.2 -2.89,0.32 -3.31,0.36 -2.39,0.22 -2.67,0.6 -4.07,0.78 -0.17,-0.33 -0.59,-0.57 -0.85,-0.81 -0.3,-0.28 -0.31,-0.65 -0.42,-1.18 -0.17,-0.76 -0,-0.63 -0.68,-0.92 -1.3,-0.55 -0.99,-0.36 -3.18,0.84 -0.61,0.33 -0.46,0.17 -0.82,0.78l-1.18 2.02c-0.28,0.5 -0.25,0.57 -0.72,0.89 -0.62,0.43 -1.28,0.89 -1.9,1.3 -0.98,0.64 -0.93,0.74 -1.44,1.76 -0.6,1.21 -0.41,1.44 -0.41,2.79 0.34,0.26 0.61,0.49 0.98,0.82 1.47,1.3 1.48,0.63 3.91,1.34 0.04,0.52 0.01,1.17 0.01,1.7 0,0.72 0.14,1.01 -0.27,1.37 -1.03,0.92 -0.82,0.67 -0.34,2.24 0.39,1.31 0.36,1.53 1.13,2.29 0.66,0.66 2.13,0.17 2.84,0.19 0.04,0.6 0.1,1.18 0.14,1.78 0.07,0.9 -0.02,0.83 0.43,1.39 0.96,1.2 0.86,0.93 0.96,2.69 0.04,0.65 1.36,3.47 1.77,3.8 0.23,0.19 0.87,0.58 1.13,0.67 0.82,-0.63 0.48,-0.64 1.83,-0.64 0.92,0 1.76,-0.15 2.18,0.23 0.62,0.55 1.09,0.53 1.91,0.34 0.75,-0.17 0.66,0.3 1.46,0.27 0.97,-0.04 0.35,0.5 1.13,1.28l0.92 0.89c0.17,-0.22 0.38,-0.44 0.54,-0.65 0.8,0.12 1.25,0.62 1.63,1.01 0.6,0.6 0.57,0.9 1.86,0.72 0.31,-0.72 -0.08,-1.14 0.76,-1.2 0.22,0.59 0.39,0.69 0.7,1.06 -0.26,0.42 -0.57,0.71 -0.8,1.14 0.16,0.34 0.36,0.56 0.51,0.89 0.15,0.32 0.14,0.68 0.28,1.01 0.55,0 1.08,-0.36 1.67,-0.14 0.11,0.46 -0.09,0.66 -0.27,1.02 -0.21,0.41 -0.1,0.42 0.11,0.83 0.24,0.48 0.21,0.41 0.59,0.71 0.38,0.31 0.15,0.5 0.35,0.9l0.87 0.18c0.23,1.24 0.15,0.62 -0.17,1.54 0.37,0.33 0.73,0.55 1.33,0.64 1.24,0.2 0.55,0.14 1.11,0.79 0.26,0.3 2.97,2.51 3.21,2.57 0.53,0.13 2.36,-0.64 2.81,-0.93 0.54,-0.36 0.58,-0.48 0.46,-1.34 -0.35,-0.14 -0.71,-0.23 -1.02,-0.36l-0.01 -0.53c0.36,-0.29 1.53,-0.83 2.04,-1.1 0.55,-0.29 0.49,-0.2 0.77,-0.75 0.26,-0.51 0.33,-0.5 0.38,-1.17 0.17,-2.7 0.65,-1.66 -0.11,-3.78 -0.23,-0.64 -0.08,-0.59 -0.74,-0.79 -0.39,-1.22 0.23,-0.97 0.21,-1.79 -0.02,-0.67 -0.29,-1.38 0.08,-1.88 0.2,0.23 0.33,0.3 0.53,0.6l0.83 -0.25 0.02 -1.31 -0.86 0.03c-0.07,-0.35 -0.18,-0.34 -0.03,-0.65 0.35,-0.05 0.47,0.32 0.84,0.3 0.16,-0.01 0.82,-0.26 0.93,-0.35 0.56,-0.46 0.1,-1.25 1.49,-1.03 0,1.31 0.22,0.6 0.66,1.33 -0.32,0.65 -0.55,0.01 -1.51,-0.2l0.24 1.67c0.63,0.25 1.61,0.23 2.32,0.23 2.27,-0 1.21,-0.32 2.06,-0.42 0.43,0.55 0.94,1.62 0.92,2.3 -0.71,0.14 -0.83,0.18 -1.26,0.59 0.11,0.66 0.43,0.93 0.27,1.62 -0.14,0.6 -0.16,1.12 -0.16,1.75 -1.4,0.11 -2.04,-0.31 -2.49,0.17 -0.21,0.23 -0.35,0.31 -0.49,0.5 0.18,0.22 1.62,1.44 1.91,1.56 0.65,-0.43 0.21,-0.64 1.31,-0.85 1,-0.2 0.73,-0.22 1.31,-0.74 0.46,-0.42 0.61,-0.48 1.01,-1.05 0.31,-0.46 0.48,-0.9 1.03,-1.03 0.2,0.28 0.02,0.18 0.32,0.31 0.19,-0.24 0.34,-0.32 0.55,-0.65 0.38,0.2 0.33,0.38 0.64,0.48 0.78,0.11 0.65,-0.23 1.15,0.44 0.43,-0.25 0.54,-0.64 1.17,-0.68 0.37,0.59 0.69,1.02 1.5,1.33l0.7 -0.78c-0.2,-0.44 -0.48,-0.95 -0.64,-1.37 -0.11,-0.32 0.13,-1.14 0.31,-1.45 0.86,0.25 0.15,0.37 1.24,0.11 0.2,-1.21 0.4,-0.94 -0.33,-1.78 -0.34,-0.39 -1.01,-0.94 -1.05,-1.46l0.4 -0.22 0.05 -1.07c0.34,-0.2 1.59,-0.51 2.07,-0.66 0.53,-0.17 1.5,-0.47 1.86,-0.78 -0.05,-0.46 -0.27,-0.87 -0.25,-1.37 0.03,-0.77 0.33,-0.91 -0.42,-1.18 -0.58,0.41 -0.44,0.77 -1.22,0.94 -2.9,0.64 -2.08,0.69 -4.29,-0.96 -0.64,-0.47 -0.73,-0.41 -0.88,-1.25 -0.14,-0.74 0.15,-0.89 0.45,-1.46 0.21,-0.39 0.14,-0.32 0.57,-0.5 1.53,-0.61 0.83,-0.44 1.75,-1.29l1.22 -0.91c0.42,-0.29 0.8,-0.58 1.19,-0.87 1.32,-0.95 1.08,-0.9 2.72,-1.39 1.56,-0.47 3.81,-2.11 5.41,-2.8l-0.04 -0.96 0.96 -0.05c0.02,-0.37 0.07,-0.79 -0.18,-1.04 -0.27,-0.27 -0.43,-0.31 -0.87,-0.16 -1.14,0.4 -0.03,0.5 -1.81,0.18 -0.99,-0.18 -1.14,-0.16 -2.03,0.17 -0.29,0.11 -0.67,0.18 -0.82,0.39 -0.22,0.31 -0.08,0.58 -0.53,0.48 -0.12,-0.22 -0.07,-0.41 -0.06,-0.72 0.64,-0.39 1.72,-0.77 2.36,-1.1 -0.18,-0.42 -0.76,-0.76 -1.06,-1.1 0.38,-0.91 0.44,-0.27 0.37,-1.67 -1.17,-1.02 -1.28,-0.3 -1.78,-1.88 -0.59,-1.88 -0.18,-2 -0.45,-3.12 -1.69,0.62 -0.67,-0.09 -2.27,0.04 -0.13,0.72 -0.03,0.98 -0.97,1.06 -0.27,-0.52 0.01,-0.43 0.18,-1.01 0.1,-0.33 0.14,-0.96 0.19,-1.33 0.04,-0.34 0.22,-1.06 0.11,-1.33 -0.1,-0.23 -0.57,-0.63 -0.8,-0.72 -0.75,0.37 -1.47,1.2 -2.22,1.49 -0.46,-0.51 -0.81,-0.73 -1.12,-1.19 -0.83,0.14 -0.79,0.24 -0.78,1.01 -0.37,-0.09 -0.64,-0.4 -1.02,-0.37l-0.22 2.45c-0.49,-0.42 -0.11,-0.28 -0.96,-0.33 -0.16,-0.08 0.07,-0.27 -0.97,-0.71 -0.01,-0.88 0.2,-0.17 0.39,-0.87 0.1,-0.36 0.1,-0.67 0.28,-0.95 0.64,-0.26 0.71,-0.01 0.92,-0.78 -0.85,-0.63 -1.75,-1.62 -2.54,-2.23l-1.01 -0.89c-0.77,-0.8 -0.97,-0.47 -1.1,-1.72 -0.22,-2.17 0.56,-1.17 -0.57,-2.93 -0.36,-0.55 -0.17,-1.1 -0.42,-1.5 -0.37,-0.32 -1.89,-0.08 -2.49,-0.55 -0.52,-0.4 -1.15,-0.99 -1.73,-1.27l-0.05 0.52 -1.29 0.04 -0.67 -0.86c0.14,-0.18 0.37,-0.31 0.42,-0.54 0.05,-0.26 -0.03,-0.67 0.03,-0.97 0.09,-0.41 0.52,-0.87 0.6,-1.29l-0.89 -0.04 -0.16 -1.41c-0.09,-0.08 -0.02,-0.04 -0.16,-0.09 -0.84,-0.32 -2.64,0.04 -3.98,-0.83l0.07 -1.9z"/>
   <path class="fil1" d="M42.75 18.14l-1.79 2.63 -3.71 0c0.38,0.43 0.69,0.92 0.94,1.47 0.25,0.55 0.43,1.18 0.54,1.9l4.02 0 -1.79 2.63 -2.23 0c-0.14,0.87 -0.43,1.66 -0.85,2.39 -0.42,0.73 -0.98,1.36 -1.67,1.89 -0.69,0.53 -1.51,0.94 -2.45,1.24 -0.95,0.3 -2.01,0.45 -3.19,0.45l10.86 11.59 -4.75 0 -10.5 -11.3 0 -2.63 2.63 0c0.82,0 1.59,-0.08 2.29,-0.23 0.7,-0.15 1.33,-0.38 1.88,-0.69 0.55,-0.31 1.01,-0.69 1.36,-1.13 0.37,-0.45 0.62,-0.96 0.76,-1.56l-9.8 0 1.79 -2.63 8 0c-0.27,-1.02 -0.86,-1.84 -1.76,-2.45 -0.9,-0.61 -2.12,-0.91 -3.67,-0.91l-4.36 0 1.79 -2.63 15.65 0z"/>
  </g>
 </g>
</svg>
